<svg width="280" height="38" viewBox="0 0 280 38" fill="none" xmlns="http://www.w3.org/2000/svg">
<path d="M18.8 37.45C15.9667 37.45 13.4333 37.0167 11.2 36.15C8.96667 35.25 7.06667 33.9833 5.5 32.35C3.96667 30.6833 2.78333 28.7 1.95 26.4C1.15 24.1 0.75 21.55 0.75 18.75C0.75 15.7833 1.18333 13.15 2.05 10.85C2.95 8.55 4.2 6.6 5.8 5C7.43333 3.4 9.36667 2.18333 11.6 1.35C13.8667 0.516665 16.3833 0.0999982 19.15 0.0999982C22.4167 0.0999982 25.25 0.633332 27.65 1.7C30.0833 2.73333 32.0167 4.2 33.45 6.1C34.9167 8 35.7833 10.2333 36.05 12.8H28.05C27.7833 11.5333 27.2333 10.45 26.4 9.55C25.6 8.65 24.5833 7.96666 23.35 7.5C22.1167 7 20.7167 6.75 19.15 6.75C17.05 6.75 15.2167 7.2 13.65 8.1C12.0833 8.96666 10.8667 10.3 10 12.1C9.16667 13.8667 8.75 16.0833 8.75 18.75C8.75 20.75 8.98333 22.5167 9.45 24.05C9.91667 25.5833 10.6 26.8667 11.5 27.9C12.4 28.9 13.4667 29.6667 14.7 30.2C15.9667 30.7 17.3833 30.95 18.95 30.95C20.9833 30.95 22.7333 30.6 24.2 29.9C25.7 29.1667 26.85 28.1167 27.65 26.75C28.45 25.3833 28.85 23.7833 28.85 21.95V20.55L31 23.1H18.8V17.55H36.7V21.05C36.7 23.55 36.2667 25.8167 35.4 27.85C34.5667 29.85 33.3667 31.5667 31.8 33C30.2333 34.4333 28.35 35.5333 26.15 36.3C23.95 37.0667 21.5 37.45 18.8 37.45ZM53.6461 37.45C50.8461 37.45 48.4461 36.8833 46.4461 35.75C44.4794 34.6167 42.9628 33.0333 41.8961 31C40.8294 28.9333 40.2961 26.5333 40.2961 23.8C40.2961 20.9 40.8294 18.4 41.8961 16.3C42.9628 14.2 44.4794 12.5833 46.4461 11.45C48.4128 10.2833 50.7294 9.7 53.3961 9.7C56.4961 9.7 59.0461 10.3833 61.0461 11.75C63.0461 13.1167 64.4794 14.9667 65.3461 17.3C66.2128 19.6333 66.4961 22.2833 66.1961 25.25H47.5461C47.5128 26.65 47.7461 27.85 48.2461 28.85C48.7794 29.85 49.5128 30.6167 50.4461 31.15C51.3794 31.65 52.4461 31.9 53.6461 31.9C55.0461 31.9 56.2294 31.6 57.1961 31C58.1961 30.3667 58.8294 29.5333 59.0961 28.5H66.0461C65.8128 30.3 65.1294 31.8667 63.9961 33.2C62.8961 34.5333 61.4628 35.5833 59.6961 36.35C57.9294 37.0833 55.9128 37.45 53.6461 37.45ZM47.5461 21.35L46.8961 20.55H59.6461L58.9961 21.35C59.0628 19.95 58.8461 18.8167 58.3461 17.95C57.8794 17.05 57.2128 16.3833 56.3461 15.95C55.4794 15.4833 54.4961 15.25 53.3961 15.25C52.1961 15.25 51.1628 15.5 50.2961 16C49.4294 16.5 48.7461 17.2167 48.2461 18.15C47.7794 19.05 47.5461 20.1167 47.5461 21.35ZM79.8477 37C78.0477 37 76.6477 36.7333 75.6477 36.2C74.6477 35.6667 73.9477 34.9167 73.5477 33.95C73.181 32.95 72.9977 31.7833 72.9977 30.45V16.1H68.1977V10.2H72.9977V2.9L80.2977 2.2V10.2H85.6977V16.1H80.2977V29.05C80.2977 29.85 80.481 30.3833 80.8477 30.65C81.2143 30.9167 81.7477 31.05 82.4477 31.05H85.6977V37H79.8477ZM114.48 37.45C111.214 37.45 108.464 36.95 106.23 35.95C103.997 34.95 102.297 33.55 101.13 31.75C99.9971 29.95 99.4305 27.8833 99.4305 25.55H107.33C107.364 26.75 107.63 27.8 108.13 28.7C108.664 29.5667 109.464 30.25 110.53 30.75C111.63 31.25 113.047 31.5 114.78 31.5C116.78 31.5 118.38 31.1333 119.58 30.4C120.78 29.6667 121.38 28.5833 121.38 27.15C121.38 26.2833 121.247 25.5667 120.98 25C120.714 24.4333 120.247 23.9667 119.58 23.6C118.947 23.2 118.08 22.8833 116.98 22.65C115.914 22.3833 114.547 22.1 112.88 21.8C110.814 21.5 108.98 21.0667 107.38 20.5C105.78 19.9333 104.447 19.2333 103.38 18.4C102.314 17.5667 101.514 16.5667 100.98 15.4C100.447 14.2 100.18 12.8 100.18 11.2C100.18 8.9 100.747 6.93333 101.88 5.3C103.047 3.63333 104.697 2.35 106.83 1.45C108.964 0.549998 111.497 0.0999982 114.43 0.0999982C117.297 0.0999982 119.764 0.549998 121.83 1.45C123.93 2.35 125.547 3.61667 126.68 5.25C127.814 6.88333 128.38 8.78333 128.38 10.95H120.53C120.497 9.78333 120.18 8.83333 119.58 8.1C119.014 7.36667 118.264 6.83333 117.33 6.5C116.397 6.16667 115.347 6 114.18 6C112.98 6 111.93 6.16667 111.03 6.5C110.13 6.83333 109.447 7.31667 108.98 7.95C108.514 8.58333 108.28 9.33333 108.28 10.2C108.28 11.3 108.564 12.1333 109.13 12.7C109.73 13.2667 110.68 13.7167 111.98 14.05C113.28 14.35 114.98 14.6833 117.08 15.05C118.614 15.2833 120.114 15.6 121.58 16C123.047 16.4 124.38 17 125.58 17.8C126.78 18.5667 127.73 19.65 128.43 21.05C129.13 22.4167 129.48 24.2 129.48 26.4C129.48 28.5667 128.914 30.5 127.78 32.2C126.68 33.8667 125.014 35.1667 122.78 36.1C120.58 37 117.814 37.45 114.48 37.45ZM143.373 37C141.573 37 140.173 36.7333 139.173 36.2C138.173 35.6667 137.473 34.9167 137.073 33.95C136.706 32.95 136.523 31.7833 136.523 30.45V16.1H131.723V10.2H136.523V2.9L143.823 2.2V10.2H149.223V16.1H143.823V29.05C143.823 29.85 144.006 30.3833 144.373 30.65C144.74 30.9167 145.273 31.05 145.973 31.05H149.223V37H143.373ZM162.178 37.45C160.578 37.45 159.111 37.1667 157.778 36.6C156.478 36.0333 155.344 35.1667 154.378 34C153.444 32.8333 152.728 31.3833 152.228 29.65C151.728 27.9167 151.478 25.9 151.478 23.6C151.478 20.5 151.911 17.9333 152.778 15.9C153.678 13.8333 154.928 12.2833 156.528 11.25C158.161 10.2167 160.044 9.7 162.178 9.7C163.578 9.7 164.828 9.91667 165.928 10.35C167.061 10.7833 168.028 11.3833 168.828 12.15C169.661 12.9167 170.278 13.8167 170.678 14.85H171.078L171.378 10.2H178.428V37H171.078V32.3H170.678C170.078 33.8667 169.028 35.1167 167.528 36.05C166.028 36.9833 164.244 37.45 162.178 37.45ZM164.978 31.5C166.344 31.5 167.461 31.1833 168.328 30.55C169.228 29.9167 169.894 29.1 170.328 28.1C170.761 27.0667 170.978 25.9833 170.978 24.85V22.3C170.978 21.1333 170.761 20.05 170.328 19.05C169.894 18.05 169.228 17.2333 168.328 16.6C167.461 15.9667 166.344 15.65 164.978 15.65C163.778 15.65 162.728 15.9333 161.828 16.5C160.928 17.0667 160.228 17.9333 159.728 19.1C159.228 20.2667 158.978 21.7667 158.978 23.6C158.978 25.3667 159.228 26.85 159.728 28.05C160.228 29.2167 160.928 30.0833 161.828 30.65C162.728 31.2167 163.778 31.5 164.978 31.5ZM184.718 37V10.2H191.368L191.668 14.5H191.918C192.518 12.7667 193.468 11.5667 194.768 10.9C196.102 10.2 197.618 9.85 199.318 9.85C199.618 9.85 199.885 9.85 200.118 9.85C200.352 9.85 200.585 9.85 200.818 9.85V16.75C200.652 16.75 200.418 16.75 200.118 16.75C199.818 16.75 199.502 16.75 199.168 16.75C197.535 16.75 196.202 17 195.168 17.5C194.135 17.9667 193.368 18.6667 192.868 19.6C192.368 20.5333 192.102 21.6667 192.068 23V37H184.718ZM214.662 37C212.862 37 211.462 36.7333 210.462 36.2C209.462 35.6667 208.762 34.9167 208.362 33.95C207.995 32.95 207.812 31.7833 207.812 30.45V16.1H203.012V10.2H207.812V2.9L215.112 2.2V10.2H220.512V16.1H215.112V29.05C215.112 29.85 215.295 30.3833 215.662 30.65C216.029 30.9167 216.562 31.05 217.262 31.05H220.512V37H214.662ZM236.117 37.45C233.317 37.45 230.917 36.8833 228.917 35.75C226.95 34.6167 225.433 33.0333 224.367 31C223.3 28.9333 222.767 26.5333 222.767 23.8C222.767 20.9 223.3 18.4 224.367 16.3C225.433 14.2 226.95 12.5833 228.917 11.45C230.883 10.2833 233.2 9.7 235.867 9.7C238.967 9.7 241.517 10.3833 243.517 11.75C245.517 13.1167 246.95 14.9667 247.817 17.3C248.683 19.6333 248.967 22.2833 248.667 25.25H230.017C229.983 26.65 230.217 27.85 230.717 28.85C231.25 29.85 231.983 30.6167 232.917 31.15C233.85 31.65 234.917 31.9 236.117 31.9C237.517 31.9 238.7 31.6 239.667 31C240.667 30.3667 241.3 29.5333 241.567 28.5H248.517C248.283 30.3 247.6 31.8667 246.467 33.2C245.367 34.5333 243.933 35.5833 242.167 36.35C240.4 37.0833 238.383 37.45 236.117 37.45ZM230.017 21.35L229.367 20.55H242.117L241.467 21.35C241.533 19.95 241.317 18.8167 240.817 17.95C240.35 17.05 239.683 16.3833 238.817 15.95C237.95 15.4833 236.967 15.25 235.867 15.25C234.667 15.25 233.633 15.5 232.767 16C231.9 16.5 231.217 17.2167 230.717 18.15C230.25 19.05 230.017 20.1167 230.017 21.35ZM263.057 37.45C261.457 37.45 259.99 37.1667 258.657 36.6C257.357 36.0333 256.223 35.1667 255.257 34C254.323 32.8333 253.607 31.3833 253.107 29.65C252.607 27.9167 252.357 25.9 252.357 23.6C252.357 20.5 252.79 17.9333 253.657 15.9C254.557 13.8333 255.807 12.2833 257.407 11.25C259.04 10.2167 260.923 9.7 263.057 9.7C264.457 9.7 265.707 9.91667 266.807 10.35C267.94 10.7833 268.907 11.3833 269.707 12.15C270.54 12.9167 271.157 13.8167 271.557 14.85H271.957V0.549998H279.307V37H272.207L271.957 32.3H271.557C270.957 33.8667 269.907 35.1167 268.407 36.05C266.907 36.9833 265.123 37.45 263.057 37.45ZM265.857 31.5C267.223 31.5 268.34 31.1833 269.207 30.55C270.107 29.9167 270.773 29.1 271.207 28.1C271.64 27.0667 271.857 25.9833 271.857 24.85V22.3C271.857 21.4333 271.74 20.6 271.507 19.8C271.273 19 270.907 18.3 270.407 17.7C269.907 17.0667 269.273 16.5667 268.507 16.2C267.74 15.8333 266.857 15.65 265.857 15.65C264.657 15.65 263.607 15.9333 262.707 16.5C261.807 17.0667 261.107 17.9333 260.607 19.1C260.107 20.2667 259.857 21.7667 259.857 23.6C259.857 25.3667 260.107 26.85 260.607 28.05C261.107 29.2167 261.807 30.0833 262.707 30.65C263.607 31.2167 264.657 31.5 265.857 31.5Z" fill="black"/>
</svg>
