<svg xmlns="http://www.w3.org/2000/svg" xmlns:xlink="http://www.w3.org/1999/xlink" viewBox="0 0 370 76.18"><defs><style>.cls-1{fill:url(#Dégradé_sans_nom);}.cls-2{fill:none;stroke:#8f8f8f;}</style><linearGradient id="Dégradé_sans_nom" x1="185.59" y1="491.93" x2="184.49" y2="415.58" gradientTransform="matrix(1, 0, 0, -1, 0, 489.28)" gradientUnits="userSpaceOnUse"><stop offset="0" stop-color="#e6e6e6"/><stop offset="1" stop-color="#fff"/></linearGradient></defs><g id="Calque_2" data-name="Calque 2"><g id="Calque_1-2" data-name="Calque 1"><rect class="cls-1" width="370" height="76.18" rx="36.27"/><rect class="cls-2" x="0.6" y="0.6" width="368.79" height="74.97" rx="35.67"/><path d="M159.53,48.37V27.21h11a8.42,8.42,0,0,1,3.68.7,4.54,4.54,0,0,1,2.15,1.88,5.58,5.58,0,0,1,.73,2.88,5.31,5.31,0,0,1-.38,2,4.44,4.44,0,0,1-1,1.57,3.78,3.78,0,0,1-1.59.95v.26a4.14,4.14,0,0,1,1.94.93A4.33,4.33,0,0,1,177.26,40a5.33,5.33,0,0,1,.44,2.17,6,6,0,0,1-.93,3.46,5.53,5.53,0,0,1-2.7,2,12.17,12.17,0,0,1-4.3.67Zm5.72-4.44h3.83a2.93,2.93,0,0,0,2-.56,2,2,0,0,0,.61-1.5,1.88,1.88,0,0,0-.73-1.69,3.13,3.13,0,0,0-1.86-.49h-3.88Zm0-8.51h3.62a3.13,3.13,0,0,0,1.34-.23,1.6,1.6,0,0,0,.75-.7,2,2,0,0,0,.24-1,1.53,1.53,0,0,0-.64-1.39,3,3,0,0,0-1.72-.44h-3.59Zm19.32,13.24a6.38,6.38,0,0,1-3.11-.7,4.39,4.39,0,0,1-1.85-2.09,8.23,8.23,0,0,1-.61-3.34v-10h5.54V41a5.8,5.8,0,0,0,.23,1.75,2.21,2.21,0,0,0,.73,1.07,2.37,2.37,0,0,0,1.33.35,2.32,2.32,0,0,0,1.42-.41,2.55,2.55,0,0,0,.87-1,2.82,2.82,0,0,0,.29-1.25V32.58H195V48.37h-5.34l-.21-2.59h-.23a4.08,4.08,0,0,1-1.8,2.15A5.53,5.53,0,0,1,184.57,48.66Zm19.45,0a9.4,9.4,0,0,1-5.6-1.45,4.55,4.55,0,0,1-1.94-3.86h5.46a1.43,1.43,0,0,0,.66,1.3,3.4,3.4,0,0,0,1.57.35,2.84,2.84,0,0,0,1.45-.29.93.93,0,0,0,.47-.78,1,1,0,0,0-.3-.79,1.8,1.8,0,0,0-.89-.37c-.39-.08-.89-.16-1.51-.24-.85-.11-1.67-.26-2.44-.43a8.92,8.92,0,0,1-2.09-.81,4.4,4.4,0,0,1-1.45-1.46,4.49,4.49,0,0,1-.52-2.29,4.65,4.65,0,0,1,.92-3,5.42,5.42,0,0,1,2.59-1.71,11.57,11.57,0,0,1,3.86-.58,10,10,0,0,1,3.68.61,5.34,5.34,0,0,1,2.44,1.71,4.43,4.43,0,0,1,1,2.7h-5.43a1.13,1.13,0,0,0-.23-.7,1.37,1.37,0,0,0-.61-.49,2.44,2.44,0,0,0-1-.17,2.14,2.14,0,0,0-1.25.29.87.87,0,0,0-.4.75.88.88,0,0,0,.29.67,2.39,2.39,0,0,0,.9.38c.4.07.93.15,1.57.23a23.16,23.16,0,0,1,2.38.4,7.68,7.68,0,0,1,2.08.79,3.62,3.62,0,0,1,1.48,1.45,4.94,4.94,0,0,1,.56,2.49,4.37,4.37,0,0,1-2,4A10.87,10.87,0,0,1,204,48.66Z"/></g></g></svg>