<svg xmlns="http://www.w3.org/2000/svg" viewBox="0 0 220 284"><defs><style>.cls-1{fill:#fff;}.cls-2{fill:none;stroke:#8f8f8f;}</style></defs><g id="Calque_2" data-name="Calque 2"><g id="Calque_1-2" data-name="Calque 1"><rect class="cls-1" width="220" height="284" rx="20"/><rect class="cls-2" x="0.5" y="0.5" width="219" height="283" rx="19.5"/><path d="M100.21,151.24a10.91,10.91,0,0,1-3.67-.58,8.26,8.26,0,0,1-2.84-1.72,7.86,7.86,0,0,1-1.85-2.84,11.16,11.16,0,0,1-.62-3.86,11,11,0,0,1,.62-3.84,7.57,7.57,0,0,1,1.85-2.81,7.84,7.84,0,0,1,2.84-1.73,10.66,10.66,0,0,1,3.67-.6,10,10,0,0,1,4.13.82,7.22,7.22,0,0,1,2.92,2.23,6.45,6.45,0,0,1,1.3,3.36h-4.92a2.74,2.74,0,0,0-.67-1.17,3.1,3.1,0,0,0-1.18-.82,4.12,4.12,0,0,0-1.58-.29,4.23,4.23,0,0,0-2.11.51,3.26,3.26,0,0,0-1.4,1.56,6.77,6.77,0,0,0-.48,2.78,7.69,7.69,0,0,0,.29,2.23A4.06,4.06,0,0,0,97.3,146a3.28,3.28,0,0,0,1.27.87,5.08,5.08,0,0,0,1.64.26,3.79,3.79,0,0,0,1.53-.29A3.57,3.57,0,0,0,103,146a2.67,2.67,0,0,0,.67-1.22h4.92a6.49,6.49,0,0,1-1.32,3.38,7.72,7.72,0,0,1-2.95,2.26A10,10,0,0,1,100.21,151.24Zm10.18-.24V133.5h7.34l2.33,9.51h.19l2.26-9.51h7.34V151h-4.7v-5.64l0-6.79H125L122,151h-3.75l-3-12.43h-.21l.07,6.84V151Z"/></g></g></svg>