<svg xmlns="http://www.w3.org/2000/svg" viewBox="0 0 146 67"><defs><style>.cls-1{fill:#fff;}.cls-2{fill:none;stroke:#8f8f8f;}</style></defs><g id="Calque_2" data-name="Calque 2"><g id="Calque_1-2" data-name="Calque 1"><rect class="cls-1" width="146" height="67" rx="20"/><rect class="cls-2" x="0.5" y="0.5" width="145" height="66" rx="19.5"/><path d="M44,43V25.5h12.7v3.2H47.16l.62-.63v5.64l-.62-.62h8.62v3H47.16l.62-.63V43Zm14.25,0V25.5h3.53V43Zm10.38.22a5.36,5.36,0,0,1-2.11-.41,4.28,4.28,0,0,1-1.63-1.25,5.94,5.94,0,0,1-1-2.09,10.5,10.5,0,0,1-.36-2.9,9.42,9.42,0,0,1,.63-3.7,5,5,0,0,1,6.31-2.66,4.08,4.08,0,0,1,1.39.86,3.4,3.4,0,0,1,.89,1.3h.19l.14-2.23h3.39V43H72.94V40.74h-.19a3.54,3.54,0,0,1-1.51,1.8A4.76,4.76,0,0,1,68.67,43.22ZM70,40.36a2.61,2.61,0,0,0,1.61-.46,2.74,2.74,0,0,0,1-1.17,4,4,0,0,0,.31-1.56V35.94a3.85,3.85,0,0,0-.31-1.56,2.74,2.74,0,0,0-1-1.17A2.61,2.61,0,0,0,70,32.75a2.8,2.8,0,0,0-1.51.41,2.66,2.66,0,0,0-1,1.25,6.57,6.57,0,0,0,0,4.29,2.66,2.66,0,0,0,1,1.25A2.8,2.8,0,0,0,70,40.36Zm14.16,6.89a7.55,7.55,0,0,1-2.92-.51,4.47,4.47,0,0,1-1.93-1.36,3.74,3.74,0,0,1-.79-2h3.39a1.57,1.57,0,0,0,.38.72,2,2,0,0,0,.79.5,3.21,3.21,0,0,0,1.16.19,3.68,3.68,0,0,0,1.65-.31,1.89,1.89,0,0,0,.94-.86,3.2,3.2,0,0,0,.31-1.47V39.9H87a3.45,3.45,0,0,1-1.47,1.68,4.36,4.36,0,0,1-2.42.65A5.6,5.6,0,0,1,81,41.85a4.55,4.55,0,0,1-1.58-1.18,5.62,5.62,0,0,1-1-1.94A9,9,0,0,1,78,36.06a8.1,8.1,0,0,1,.63-3.4,4.71,4.71,0,0,1,1.77-2.07,5.15,5.15,0,0,1,2.69-.69,4.5,4.5,0,0,1,2.43.64A3.4,3.4,0,0,1,87,32.2h.19l.1-2.06h3.43V41.46a6.83,6.83,0,0,1-.48,2.72A4.39,4.39,0,0,1,88.88,46a5.24,5.24,0,0,1-2.07,1A10.63,10.63,0,0,1,84.17,47.25Zm.19-7.73a2.83,2.83,0,0,0,1.52-.38,2.6,2.6,0,0,0,.91-1,3.52,3.52,0,0,0,.36-1.32l0-1.54A2.82,2.82,0,0,0,86.79,34a2.53,2.53,0,0,0-.91-1,2.77,2.77,0,0,0-1.49-.38A2.92,2.92,0,0,0,82.9,33a2.4,2.4,0,0,0-1,1.13,5.9,5.9,0,0,0,0,3.89,2.62,2.62,0,0,0,1,1.15A2.79,2.79,0,0,0,84.36,39.52Zm13.81,3.72a7,7,0,0,1-4.34-1.18,3.72,3.72,0,0,1-1.49-3.12h3.45a1.71,1.71,0,0,0,.72,1.49,3.28,3.28,0,0,0,1.76.43,2.83,2.83,0,0,0,1.63-.38,1.29,1.29,0,0,0,.26-1.87,1.72,1.72,0,0,0-.86-.46,10.64,10.64,0,0,0-1.49-.29,18.74,18.74,0,0,1-2-.36,7,7,0,0,1-1.63-.64,3.3,3.3,0,0,1-1.1-1.13,4,4,0,0,1,.31-4,4.38,4.38,0,0,1,2-1.37,8.84,8.84,0,0,1,3-.45,7.71,7.71,0,0,1,2.86.48A4.18,4.18,0,0,1,103,31.77a3.64,3.64,0,0,1,.7,2.18h-3.46A1.53,1.53,0,0,0,100,33a1.62,1.62,0,0,0-.75-.58,2.9,2.9,0,0,0-1.08-.19,2.38,2.38,0,0,0-1.48.39,1.12,1.12,0,0,0-.51,1,1,1,0,0,0,.29.76,1.91,1.91,0,0,0,.89.46,14.05,14.05,0,0,0,1.53.26,18.31,18.31,0,0,1,1.9.34,5.58,5.58,0,0,1,1.66.65,2.82,2.82,0,0,1,1.12,1.15,3.75,3.75,0,0,1,.41,1.9,3.43,3.43,0,0,1-1.56,3.12A7.94,7.94,0,0,1,98.17,43.24Z"/></g></g></svg>