<svg xmlns="http://www.w3.org/2000/svg" viewBox="0 0 40.46 143.05"><defs><style>.cls-1{fill:#fff;}.cls-2{fill:none;stroke:#8f8f8f;}</style></defs><g id="Calque_2" data-name="Calque 2"><g id="Calque_1-2" data-name="Calque 1"><path class="cls-1" d="M40.28,30.57A3.52,3.52,0,0,0,39,28L9.25,1.63C6.11-1.15.18.56.18,4.25V138.8c0,3.71,6,5.41,9.11,2.59l29.76-27a3.5,3.5,0,0,0,1.23-2.58Z"/><path class="cls-2" d="M40,30.57a3.31,3.31,0,0,0-1.2-2.46L9,1.79C6.06-.82.5.79.5,4.25V138.8c0,3.48,5.62,5.07,8.55,2.42l29.75-27A3.25,3.25,0,0,0,40,111.83Z"/><path d="M2.45,78.18V66.86H7.2L8.71,73h.12l1.46-6.15H15V78.18H12V74.53l0-4.39h-.11l-1.94,8H7.56l-1.94-8H5.48l0,4.42v3.62Zm13.28,0,3.52-11.32h4.49l3.52,11.32H24l-.59-2h-3.8l-.59,2Zm4.56-4.41H22.7L22,71.49l-.48-1.8h-.11L21,71.49ZM28,78.18V66.86h5.9a7.06,7.06,0,0,1,1.83.22,3.38,3.38,0,0,1,1.3.65,2.66,2.66,0,0,1,.76,1.06A3.56,3.56,0,0,1,38,70.23,2.91,2.91,0,0,1,37.46,72a2.29,2.29,0,0,1-1.39.93V73a2.09,2.09,0,0,1,1.22.7,2.25,2.25,0,0,1,.42,1.46v1.64c0,.22,0,.45,0,.69a2.15,2.15,0,0,0,.18.68H34.75a1.49,1.49,0,0,1-.14-.54,6.77,6.77,0,0,1,0-.81V75.71a1.72,1.72,0,0,0-.12-.68.94.94,0,0,0-.44-.44,2.08,2.08,0,0,0-.88-.15h-2v3.74ZM31.1,72h2.28a1.32,1.32,0,0,0,1.07-.37,1.36,1.36,0,0,0,.33-.93,1.27,1.27,0,0,0-.19-.73.85.85,0,0,0-.48-.37,1.83,1.83,0,0,0-.73-.13H31.1Z"/></g></g></svg>