<svg xmlns="http://www.w3.org/2000/svg" viewBox="0 0 220 71"><defs><style>.cls-1{fill:#fff;}.cls-2{fill:none;stroke:#8f8f8f;}</style></defs><g id="Calque_2" data-name="Calque 2"><g id="Calque_1-2" data-name="Calque 1"><rect class="cls-1" width="220" height="71" rx="5"/><rect class="cls-2" x="0.5" y="0.5" width="219" height="70" rx="4.5"/><path d="M82.13,42V24.5h7.34L91.8,34H92l2.26-9.51h7.34V42h-4.7V36.36l0-6.79h-.17L93.77,42H90L87,29.57h-.22l.07,6.84V42Zm22.23,0V24.5h7.85a8.54,8.54,0,0,1,4.51,1.11,7.09,7.09,0,0,1,2.76,3.07,10.61,10.61,0,0,1,.93,4.58,11.47,11.47,0,0,1-.52,3.56,7.57,7.57,0,0,1-1.59,2.78,6.82,6.82,0,0,1-2.56,1.78,9.35,9.35,0,0,1-3.53.62Zm4.87-4.1h2.14a7,7,0,0,0,1.56-.17,3.19,3.19,0,0,0,1.29-.67,3.22,3.22,0,0,0,.89-1.44,7.26,7.26,0,0,0,.34-2.45,6.07,6.07,0,0,0-.55-2.88A2.7,2.7,0,0,0,113.46,29a5.69,5.69,0,0,0-2.09-.36h-2.14Zm13,4.1V24.5h9.12a10.7,10.7,0,0,1,2.83.34,5.12,5.12,0,0,1,2,1,4.15,4.15,0,0,1,1.18,1.63,5.69,5.69,0,0,1,.4,2.23A4.44,4.44,0,0,1,137,32.4a3.58,3.58,0,0,1-2.16,1.44V34a3.08,3.08,0,0,1,1.9,1.08,3.49,3.49,0,0,1,.65,2.25v2.55c0,.33,0,.69,0,1a3.17,3.17,0,0,0,.29,1.06h-4.9a3,3,0,0,1-.21-.84,9.7,9.7,0,0,1-.07-1.25V38.18a2.55,2.55,0,0,0-.2-1,1.32,1.32,0,0,0-.67-.67,3.12,3.12,0,0,0-1.37-.24h-3.12V42Zm4.87-9.6h3.53a2,2,0,0,0,1.66-.58,2.12,2.12,0,0,0,.5-1.44,1.84,1.84,0,0,0-.29-1.12,1.34,1.34,0,0,0-.74-.58,3,3,0,0,0-1.13-.19h-3.53Z"/></g></g></svg>