<svg width="263" height="447" viewBox="0 0 263 447" fill="none" xmlns="http://www.w3.org/2000/svg">
<g filter="url(#filter0_dii_248_554)">
<rect x="33" y="17" width="197" height="50" rx="10" fill="white"/>
<rect x="33.5" y="17.5" width="196" height="49" rx="9.5" stroke="#8F8F8F"/>
</g>
<g filter="url(#filter1_dii_248_554)">
<rect x="33" y="73" width="197" height="50" rx="10" fill="white"/>
<rect x="33.5" y="73.5" width="196" height="49" rx="9.5" stroke="#8F8F8F"/>
</g>
<g filter="url(#filter2_dii_248_554)">
<rect x="33" y="129" width="197" height="50" rx="10" fill="white"/>
<rect x="33.5" y="129.5" width="196" height="49" rx="9.5" stroke="#8F8F8F"/>
</g>
<g filter="url(#filter3_dii_248_554)">
<rect x="33" y="183" width="197" height="50" rx="10" fill="white"/>
<rect x="33.5" y="183.5" width="196" height="49" rx="9.5" stroke="#8F8F8F"/>
</g>
<g filter="url(#filter4_dii_248_554)">
<rect x="33" y="238" width="197" height="50" rx="10" fill="white"/>
<rect x="33.5" y="238.5" width="196" height="49" rx="9.5" stroke="#8F8F8F"/>
</g>
<g filter="url(#filter5_dii_248_554)">
<rect x="33" y="293" width="197" height="50" rx="10" fill="white"/>
<rect x="33.5" y="293.5" width="196" height="49" rx="9.5" stroke="#8F8F8F"/>
</g>
<g filter="url(#filter6_dii_248_554)">
<rect x="33" y="347" width="197" height="50" rx="10" fill="white"/>
<rect x="33.5" y="347.5" width="196" height="49" rx="9.5" stroke="#8F8F8F"/>
</g>
<path d="M117.807 51V33.504H126.927C128.015 33.504 128.959 33.616 129.759 33.84C130.575 34.064 131.247 34.4 131.775 34.848C132.303 35.296 132.695 35.84 132.951 36.48C133.223 37.12 133.359 37.864 133.359 38.712C133.359 39.736 133.079 40.632 132.519 41.4C131.975 42.152 131.255 42.632 130.359 42.84V43.008C131.191 43.184 131.823 43.544 132.255 44.088C132.687 44.616 132.903 45.368 132.903 46.344V48.888C132.903 49.224 132.911 49.576 132.927 49.944C132.959 50.296 133.055 50.648 133.215 51H128.319C128.223 50.808 128.151 50.528 128.103 50.16C128.055 49.776 128.031 49.36 128.031 48.912V47.184C128.031 46.768 127.967 46.416 127.839 46.128C127.711 45.84 127.487 45.616 127.167 45.456C126.847 45.296 126.391 45.216 125.799 45.216H122.679V51H117.807ZM122.679 41.4H126.207C126.991 41.4 127.543 41.208 127.863 40.824C128.199 40.44 128.367 39.96 128.367 39.384C128.367 38.904 128.271 38.528 128.079 38.256C127.903 37.984 127.655 37.792 127.335 37.68C127.015 37.552 126.639 37.488 126.207 37.488H122.679V41.4ZM138.425 51V40.296H133.889V36.816H134.657C135.777 36.816 136.705 36.528 137.441 35.952C138.193 35.376 138.617 34.624 138.713 33.696H143.009V51H138.425Z" fill="black"/>
<path d="M118.108 106V88.504H127.228C128.316 88.504 129.26 88.616 130.06 88.84C130.876 89.064 131.548 89.4 132.076 89.848C132.604 90.296 132.996 90.84 133.252 91.48C133.524 92.12 133.66 92.864 133.66 93.712C133.66 94.736 133.38 95.632 132.82 96.4C132.276 97.152 131.556 97.632 130.66 97.84V98.008C131.492 98.184 132.124 98.544 132.556 99.088C132.988 99.616 133.204 100.368 133.204 101.344V103.888C133.204 104.224 133.212 104.576 133.228 104.944C133.26 105.296 133.356 105.648 133.516 106H128.62C128.524 105.808 128.452 105.528 128.404 105.16C128.356 104.776 128.332 104.36 128.332 103.912V102.184C128.332 101.768 128.268 101.416 128.14 101.128C128.012 100.84 127.788 100.616 127.468 100.456C127.148 100.296 126.692 100.216 126.1 100.216H122.98V106H118.108ZM122.98 96.4H126.508C127.292 96.4 127.844 96.208 128.164 95.824C128.5 95.44 128.668 94.96 128.668 94.384C128.668 93.904 128.572 93.528 128.38 93.256C128.204 92.984 127.956 92.792 127.636 92.68C127.316 92.552 126.94 92.488 126.508 92.488H122.98V96.4ZM134.693 106V105.424C134.693 104.336 134.837 103.384 135.125 102.568C135.413 101.752 135.797 101.04 136.277 100.432C136.757 99.808 137.285 99.264 137.861 98.8C138.437 98.32 139.005 97.888 139.565 97.504C140.141 97.12 140.669 96.752 141.149 96.4C141.629 96.048 142.013 95.688 142.301 95.32C142.589 94.936 142.733 94.512 142.733 94.048C142.733 93.696 142.661 93.4 142.517 93.16C142.373 92.904 142.173 92.712 141.917 92.584C141.661 92.456 141.357 92.392 141.005 92.392C140.637 92.392 140.317 92.472 140.045 92.632C139.773 92.792 139.573 93.04 139.445 93.376C139.317 93.696 139.277 94.112 139.325 94.624H134.765C134.733 93.36 134.981 92.272 135.509 91.36C136.053 90.448 136.813 89.744 137.789 89.248C138.781 88.736 139.941 88.48 141.269 88.48C142.517 88.48 143.605 88.688 144.533 89.104C145.461 89.52 146.181 90.128 146.693 90.928C147.221 91.728 147.485 92.696 147.485 93.832C147.485 94.536 147.389 95.168 147.197 95.728C147.021 96.288 146.765 96.792 146.429 97.24C146.109 97.688 145.741 98.096 145.325 98.464C144.925 98.816 144.501 99.144 144.053 99.448C143.621 99.752 143.189 100.048 142.757 100.336C142.325 100.608 141.925 100.88 141.557 101.152C141.189 101.424 140.877 101.704 140.621 101.992H147.605V106H134.693Z" fill="black"/>
<path d="M117.815 159V141.504H126.935C128.023 141.504 128.967 141.616 129.767 141.84C130.583 142.064 131.255 142.4 131.783 142.848C132.311 143.296 132.703 143.84 132.959 144.48C133.231 145.12 133.367 145.864 133.367 146.712C133.367 147.736 133.087 148.632 132.527 149.4C131.983 150.152 131.263 150.632 130.367 150.84V151.008C131.199 151.184 131.831 151.544 132.263 152.088C132.695 152.616 132.911 153.368 132.911 154.344V156.888C132.911 157.224 132.919 157.576 132.935 157.944C132.967 158.296 133.063 158.648 133.223 159H128.327C128.231 158.808 128.159 158.528 128.111 158.16C128.063 157.776 128.039 157.36 128.039 156.912V155.184C128.039 154.768 127.975 154.416 127.847 154.128C127.719 153.84 127.495 153.616 127.175 153.456C126.855 153.296 126.399 153.216 125.807 153.216H122.687V159H117.815ZM122.687 149.4H126.215C126.999 149.4 127.551 149.208 127.871 148.824C128.207 148.44 128.375 147.96 128.375 147.384C128.375 146.904 128.279 146.528 128.087 146.256C127.911 145.984 127.663 145.792 127.343 145.68C127.023 145.552 126.647 145.488 126.215 145.488H122.687V149.4ZM140.928 159.24C139.536 159.24 138.344 159.008 137.352 158.544C136.376 158.064 135.616 157.4 135.072 156.552C134.544 155.704 134.256 154.72 134.208 153.6H138.768C138.784 153.952 138.88 154.264 139.056 154.536C139.232 154.792 139.48 154.992 139.8 155.136C140.136 155.28 140.52 155.352 140.952 155.352C141.384 155.352 141.752 155.28 142.056 155.136C142.376 154.976 142.616 154.76 142.776 154.488C142.952 154.2 143.04 153.872 143.04 153.504C143.04 153.248 142.992 153.024 142.896 152.832C142.816 152.64 142.696 152.48 142.536 152.352C142.392 152.208 142.216 152.104 142.008 152.04C141.8 151.96 141.568 151.92 141.312 151.92H138.936V148.536H140.904C141.32 148.536 141.664 148.472 141.936 148.344C142.224 148.2 142.44 148.008 142.584 147.768C142.728 147.528 142.8 147.248 142.8 146.928C142.8 146.592 142.72 146.312 142.56 146.088C142.416 145.848 142.208 145.672 141.936 145.56C141.664 145.432 141.336 145.368 140.952 145.368C140.568 145.368 140.224 145.44 139.92 145.584C139.632 145.712 139.4 145.896 139.224 146.136C139.064 146.376 138.968 146.672 138.936 147.024H134.328C134.376 145.888 134.688 144.912 135.264 144.096C135.84 143.264 136.632 142.624 137.64 142.176C138.648 141.712 139.824 141.48 141.168 141.48C142.112 141.48 142.968 141.592 143.736 141.816C144.504 142.04 145.16 142.36 145.704 142.776C146.265 143.192 146.697 143.696 147.001 144.288C147.305 144.864 147.457 145.52 147.457 146.256C147.457 146.832 147.36 147.368 147.168 147.864C146.977 148.36 146.713 148.792 146.376 149.16C146.04 149.512 145.648 149.784 145.2 149.976V150.144C145.744 150.304 146.201 150.568 146.569 150.936C146.937 151.304 147.216 151.744 147.408 152.256C147.6 152.768 147.696 153.336 147.696 153.96C147.696 155.016 147.408 155.944 146.832 156.744C146.273 157.528 145.48 158.144 144.456 158.592C143.448 159.024 142.272 159.24 140.928 159.24Z" fill="black"/>
<path d="M117.881 216V198.504H127.001C128.089 198.504 129.033 198.616 129.833 198.84C130.649 199.064 131.321 199.4 131.849 199.848C132.377 200.296 132.769 200.84 133.025 201.48C133.297 202.12 133.433 202.864 133.433 203.712C133.433 204.736 133.153 205.632 132.593 206.4C132.049 207.152 131.329 207.632 130.433 207.84V208.008C131.265 208.184 131.897 208.544 132.329 209.088C132.761 209.616 132.977 210.368 132.977 211.344V213.888C132.977 214.224 132.985 214.576 133.001 214.944C133.033 215.296 133.129 215.648 133.289 216H128.393C128.297 215.808 128.225 215.528 128.177 215.16C128.129 214.776 128.105 214.36 128.105 213.912V212.184C128.105 211.768 128.041 211.416 127.913 211.128C127.785 210.84 127.561 210.616 127.241 210.456C126.921 210.296 126.465 210.216 125.873 210.216H122.753V216H117.881ZM122.753 206.4H126.281C127.065 206.4 127.617 206.208 127.937 205.824C128.273 205.44 128.441 204.96 128.441 204.384C128.441 203.904 128.345 203.528 128.153 203.256C127.977 202.984 127.729 202.792 127.409 202.68C127.089 202.552 126.713 202.488 126.281 202.488H122.753V206.4ZM142.075 216L142.051 212.352H134.323V208.968L141.115 198.696H146.659V208.632H148.795L148.771 212.352H146.659V216H142.075ZM138.811 208.632H142.075V203.712L138.811 208.632Z" fill="black"/>
<path d="M122.244 380.24C120.628 380.24 119.26 380 118.14 379.52C117.02 379.04 116.164 378.368 115.572 377.504C114.996 376.624 114.708 375.608 114.708 374.456H119.652C119.652 374.872 119.748 375.24 119.94 375.56C120.132 375.864 120.428 376.104 120.828 376.28C121.244 376.456 121.788 376.544 122.46 376.544C123.164 376.544 123.716 376.424 124.116 376.184C124.532 375.944 124.74 375.6 124.74 375.152C124.74 374.832 124.684 374.576 124.572 374.384C124.476 374.176 124.3 374.008 124.044 373.88C123.788 373.752 123.428 373.648 122.964 373.568C122.5 373.472 121.908 373.368 121.188 373.256C120.18 373.112 119.292 372.896 118.524 372.608C117.756 372.32 117.116 371.96 116.604 371.528C116.092 371.096 115.708 370.584 115.452 369.992C115.196 369.4 115.068 368.72 115.068 367.952C115.068 366.768 115.356 365.752 115.932 364.904C116.524 364.056 117.356 363.408 118.428 362.96C119.516 362.512 120.804 362.288 122.292 362.288C123.7 362.288 124.924 362.512 125.964 362.96C127.02 363.392 127.836 364.008 128.412 364.808C129.004 365.592 129.3 366.512 129.3 367.568H124.404C124.388 367.136 124.268 366.8 124.044 366.56C123.82 366.32 123.54 366.152 123.204 366.056C122.868 365.96 122.524 365.912 122.172 365.912C121.756 365.912 121.388 365.968 121.068 366.08C120.764 366.192 120.524 366.352 120.348 366.56C120.188 366.768 120.108 367.016 120.108 367.304C120.108 367.72 120.228 368.032 120.468 368.24C120.724 368.432 121.124 368.584 121.668 368.696C122.228 368.792 122.956 368.912 123.852 369.056C124.556 369.152 125.252 369.296 125.94 369.488C126.644 369.68 127.284 369.968 127.86 370.352C128.452 370.736 128.924 371.272 129.276 371.96C129.628 372.648 129.804 373.544 129.804 374.648C129.804 375.736 129.524 376.704 128.964 377.552C128.404 378.4 127.564 379.064 126.444 379.544C125.34 380.008 123.94 380.24 122.244 380.24ZM131.618 380V362.504H140.738C141.826 362.504 142.77 362.616 143.57 362.84C144.386 363.064 145.058 363.4 145.586 363.848C146.114 364.296 146.506 364.84 146.762 365.48C147.034 366.12 147.17 366.864 147.17 367.712C147.17 368.736 146.89 369.632 146.33 370.4C145.786 371.152 145.066 371.632 144.17 371.84V372.008C145.002 372.184 145.634 372.544 146.066 373.088C146.498 373.616 146.714 374.368 146.714 375.344V377.888C146.714 378.224 146.722 378.576 146.738 378.944C146.77 379.296 146.866 379.648 147.026 380H142.13C142.034 379.808 141.962 379.528 141.914 379.16C141.866 378.776 141.842 378.36 141.842 377.912V376.184C141.842 375.768 141.778 375.416 141.65 375.128C141.522 374.84 141.298 374.616 140.978 374.456C140.658 374.296 140.202 374.216 139.61 374.216H136.49V380H131.618ZM136.49 370.4H140.018C140.802 370.4 141.354 370.208 141.674 369.824C142.01 369.44 142.178 368.96 142.178 368.384C142.178 367.904 142.082 367.528 141.89 367.256C141.714 366.984 141.466 366.792 141.146 366.68C140.826 366.552 140.45 366.488 140.018 366.488H136.49V370.4Z" fill="black"/>
<path d="M117.784 326V308.504H126.904C128.136 308.504 129.152 308.696 129.952 309.08C130.752 309.448 131.344 309.968 131.728 310.64C132.128 311.312 132.328 312.104 132.328 313.016C132.328 313.608 132.224 314.16 132.016 314.672C131.824 315.168 131.544 315.6 131.176 315.968C130.808 316.336 130.368 316.6 129.856 316.76V316.976C130.496 317.104 131.032 317.36 131.464 317.744C131.896 318.112 132.224 318.568 132.448 319.112C132.688 319.656 132.808 320.256 132.808 320.912C132.808 322.064 132.552 323.016 132.04 323.768C131.528 324.52 130.784 325.08 129.808 325.448C128.848 325.816 127.664 326 126.256 326H117.784ZM122.512 322.328H125.68C126.48 322.328 127.04 322.176 127.36 321.872C127.696 321.552 127.864 321.136 127.864 320.624C127.864 319.968 127.664 319.504 127.264 319.232C126.88 318.96 126.368 318.824 125.728 318.824H122.512V322.328ZM122.512 315.296H125.512C125.976 315.296 126.344 315.232 126.616 315.104C126.904 314.96 127.112 314.768 127.24 314.528C127.368 314.288 127.432 314.008 127.432 313.688C127.432 313.144 127.256 312.76 126.904 312.536C126.552 312.296 126.08 312.176 125.488 312.176H122.512V315.296ZM134.599 326V308.504H143.719C144.807 308.504 145.751 308.616 146.551 308.84C147.367 309.064 148.039 309.4 148.567 309.848C149.095 310.296 149.487 310.84 149.743 311.48C150.015 312.12 150.151 312.864 150.151 313.712C150.151 314.736 149.871 315.632 149.311 316.4C148.767 317.152 148.047 317.632 147.151 317.84V318.008C147.983 318.184 148.615 318.544 149.047 319.088C149.479 319.616 149.695 320.368 149.695 321.344V323.888C149.695 324.224 149.703 324.576 149.719 324.944C149.751 325.296 149.847 325.648 150.007 326H145.111C145.015 325.808 144.943 325.528 144.895 325.16C144.847 324.776 144.823 324.36 144.823 323.912V322.184C144.823 321.768 144.759 321.416 144.631 321.128C144.503 320.84 144.279 320.616 143.959 320.456C143.639 320.296 143.183 320.216 142.591 320.216H139.471V326H134.599ZM139.471 316.4H142.999C143.783 316.4 144.335 316.208 144.655 315.824C144.991 315.44 145.159 314.96 145.159 314.384C145.159 313.904 145.063 313.528 144.871 313.256C144.695 312.984 144.447 312.792 144.127 312.68C143.807 312.552 143.431 312.488 142.999 312.488H139.471V316.4Z" fill="black"/>
<path d="M112.931 271V253.504H117.803V271H112.931ZM120.558 271V253.504H128.406C130.198 253.504 131.702 253.872 132.918 254.608C134.134 255.344 135.054 256.368 135.678 257.68C136.302 258.992 136.614 260.52 136.614 262.264C136.614 263.56 136.438 264.744 136.086 265.816C135.734 266.888 135.206 267.816 134.502 268.6C133.814 269.368 132.958 269.96 131.934 270.376C130.926 270.792 129.75 271 128.406 271H120.558ZM125.43 266.896H127.566C128.126 266.896 128.646 266.84 129.126 266.728C129.622 266.6 130.054 266.376 130.422 266.056C130.806 265.72 131.102 265.24 131.31 264.616C131.534 263.992 131.646 263.176 131.646 262.168C131.646 260.904 131.462 259.944 131.094 259.288C130.742 258.632 130.262 258.192 129.654 257.968C129.046 257.728 128.35 257.608 127.566 257.608H125.43V266.896ZM138.452 271V253.504H147.572C148.66 253.504 149.604 253.616 150.404 253.84C151.22 254.064 151.892 254.4 152.42 254.848C152.948 255.296 153.34 255.84 153.596 256.48C153.868 257.12 154.004 257.864 154.004 258.712C154.004 259.736 153.724 260.632 153.164 261.4C152.62 262.152 151.9 262.632 151.004 262.84V263.008C151.836 263.184 152.468 263.544 152.9 264.088C153.332 264.616 153.548 265.368 153.548 266.344V268.888C153.548 269.224 153.556 269.576 153.572 269.944C153.604 270.296 153.7 270.648 153.86 271H148.964C148.868 270.808 148.796 270.528 148.748 270.16C148.7 269.776 148.676 269.36 148.676 268.912V267.184C148.676 266.768 148.612 266.416 148.484 266.128C148.356 265.84 148.132 265.616 147.812 265.456C147.492 265.296 147.036 265.216 146.444 265.216H143.324V271H138.452ZM143.324 261.4H146.852C147.636 261.4 148.188 261.208 148.508 260.824C148.844 260.44 149.012 259.96 149.012 259.384C149.012 258.904 148.916 258.528 148.724 258.256C148.548 257.984 148.3 257.792 147.98 257.68C147.66 257.552 147.284 257.488 146.852 257.488H143.324V261.4Z" fill="black"/>
<defs>
<filter id="filter0_dii_248_554" x="0.0666656" y="0.533333" width="262.867" height="115.867" filterUnits="userSpaceOnUse" color-interpolation-filters="sRGB">
<feFlood flood-opacity="0" result="BackgroundImageFix"/>
<feColorMatrix in="SourceAlpha" type="matrix" values="0 0 0 0 0 0 0 0 0 0 0 0 0 0 0 0 0 0 127 0" result="hardAlpha"/>
<feOffset dy="16.4667"/>
<feGaussianBlur stdDeviation="16.4667"/>
<feColorMatrix type="matrix" values="0 0 0 0 0.2 0 0 0 0 0.2 0 0 0 0 0.2 0 0 0 0.2505 0"/>
<feBlend mode="normal" in2="BackgroundImageFix" result="effect1_dropShadow_248_554"/>
<feBlend mode="normal" in="SourceGraphic" in2="effect1_dropShadow_248_554" result="shape"/>
<feColorMatrix in="SourceAlpha" type="matrix" values="0 0 0 0 0 0 0 0 0 0 0 0 0 0 0 0 0 0 127 0" result="hardAlpha"/>
<feOffset dy="5.23274"/>
<feGaussianBlur stdDeviation="2.61637"/>
<feComposite in2="hardAlpha" operator="arithmetic" k2="-1" k3="1"/>
<feColorMatrix type="matrix" values="0 0 0 0 1 0 0 0 0 1 0 0 0 0 1 0 0 0 1 0"/>
<feBlend mode="normal" in2="shape" result="effect2_innerShadow_248_554"/>
<feColorMatrix in="SourceAlpha" type="matrix" values="0 0 0 0 0 0 0 0 0 0 0 0 0 0 0 0 0 0 127 0" result="hardAlpha"/>
<feOffset dy="-5.23274"/>
<feGaussianBlur stdDeviation="2.61637"/>
<feComposite in2="hardAlpha" operator="arithmetic" k2="-1" k3="1"/>
<feColorMatrix type="matrix" values="0 0 0 0 0.922188 0 0 0 0 0.922188 0 0 0 0 0.922188 0 0 0 1 0"/>
<feBlend mode="normal" in2="effect2_innerShadow_248_554" result="effect3_innerShadow_248_554"/>
</filter>
<filter id="filter1_dii_248_554" x="0.0666656" y="56.5333" width="262.867" height="115.867" filterUnits="userSpaceOnUse" color-interpolation-filters="sRGB">
<feFlood flood-opacity="0" result="BackgroundImageFix"/>
<feColorMatrix in="SourceAlpha" type="matrix" values="0 0 0 0 0 0 0 0 0 0 0 0 0 0 0 0 0 0 127 0" result="hardAlpha"/>
<feOffset dy="16.4667"/>
<feGaussianBlur stdDeviation="16.4667"/>
<feColorMatrix type="matrix" values="0 0 0 0 0.2 0 0 0 0 0.2 0 0 0 0 0.2 0 0 0 0.2505 0"/>
<feBlend mode="normal" in2="BackgroundImageFix" result="effect1_dropShadow_248_554"/>
<feBlend mode="normal" in="SourceGraphic" in2="effect1_dropShadow_248_554" result="shape"/>
<feColorMatrix in="SourceAlpha" type="matrix" values="0 0 0 0 0 0 0 0 0 0 0 0 0 0 0 0 0 0 127 0" result="hardAlpha"/>
<feOffset dy="5.23274"/>
<feGaussianBlur stdDeviation="2.61637"/>
<feComposite in2="hardAlpha" operator="arithmetic" k2="-1" k3="1"/>
<feColorMatrix type="matrix" values="0 0 0 0 1 0 0 0 0 1 0 0 0 0 1 0 0 0 1 0"/>
<feBlend mode="normal" in2="shape" result="effect2_innerShadow_248_554"/>
<feColorMatrix in="SourceAlpha" type="matrix" values="0 0 0 0 0 0 0 0 0 0 0 0 0 0 0 0 0 0 127 0" result="hardAlpha"/>
<feOffset dy="-5.23274"/>
<feGaussianBlur stdDeviation="2.61637"/>
<feComposite in2="hardAlpha" operator="arithmetic" k2="-1" k3="1"/>
<feColorMatrix type="matrix" values="0 0 0 0 0.922188 0 0 0 0 0.922188 0 0 0 0 0.922188 0 0 0 1 0"/>
<feBlend mode="normal" in2="effect2_innerShadow_248_554" result="effect3_innerShadow_248_554"/>
</filter>
<filter id="filter2_dii_248_554" x="0.0666656" y="112.533" width="262.867" height="115.867" filterUnits="userSpaceOnUse" color-interpolation-filters="sRGB">
<feFlood flood-opacity="0" result="BackgroundImageFix"/>
<feColorMatrix in="SourceAlpha" type="matrix" values="0 0 0 0 0 0 0 0 0 0 0 0 0 0 0 0 0 0 127 0" result="hardAlpha"/>
<feOffset dy="16.4667"/>
<feGaussianBlur stdDeviation="16.4667"/>
<feColorMatrix type="matrix" values="0 0 0 0 0.2 0 0 0 0 0.2 0 0 0 0 0.2 0 0 0 0.2505 0"/>
<feBlend mode="normal" in2="BackgroundImageFix" result="effect1_dropShadow_248_554"/>
<feBlend mode="normal" in="SourceGraphic" in2="effect1_dropShadow_248_554" result="shape"/>
<feColorMatrix in="SourceAlpha" type="matrix" values="0 0 0 0 0 0 0 0 0 0 0 0 0 0 0 0 0 0 127 0" result="hardAlpha"/>
<feOffset dy="5.23274"/>
<feGaussianBlur stdDeviation="2.61637"/>
<feComposite in2="hardAlpha" operator="arithmetic" k2="-1" k3="1"/>
<feColorMatrix type="matrix" values="0 0 0 0 1 0 0 0 0 1 0 0 0 0 1 0 0 0 1 0"/>
<feBlend mode="normal" in2="shape" result="effect2_innerShadow_248_554"/>
<feColorMatrix in="SourceAlpha" type="matrix" values="0 0 0 0 0 0 0 0 0 0 0 0 0 0 0 0 0 0 127 0" result="hardAlpha"/>
<feOffset dy="-5.23274"/>
<feGaussianBlur stdDeviation="2.61637"/>
<feComposite in2="hardAlpha" operator="arithmetic" k2="-1" k3="1"/>
<feColorMatrix type="matrix" values="0 0 0 0 0.922188 0 0 0 0 0.922188 0 0 0 0 0.922188 0 0 0 1 0"/>
<feBlend mode="normal" in2="effect2_innerShadow_248_554" result="effect3_innerShadow_248_554"/>
</filter>
<filter id="filter3_dii_248_554" x="0.0666656" y="166.533" width="262.867" height="115.867" filterUnits="userSpaceOnUse" color-interpolation-filters="sRGB">
<feFlood flood-opacity="0" result="BackgroundImageFix"/>
<feColorMatrix in="SourceAlpha" type="matrix" values="0 0 0 0 0 0 0 0 0 0 0 0 0 0 0 0 0 0 127 0" result="hardAlpha"/>
<feOffset dy="16.4667"/>
<feGaussianBlur stdDeviation="16.4667"/>
<feColorMatrix type="matrix" values="0 0 0 0 0.2 0 0 0 0 0.2 0 0 0 0 0.2 0 0 0 0.2505 0"/>
<feBlend mode="normal" in2="BackgroundImageFix" result="effect1_dropShadow_248_554"/>
<feBlend mode="normal" in="SourceGraphic" in2="effect1_dropShadow_248_554" result="shape"/>
<feColorMatrix in="SourceAlpha" type="matrix" values="0 0 0 0 0 0 0 0 0 0 0 0 0 0 0 0 0 0 127 0" result="hardAlpha"/>
<feOffset dy="5.23274"/>
<feGaussianBlur stdDeviation="2.61637"/>
<feComposite in2="hardAlpha" operator="arithmetic" k2="-1" k3="1"/>
<feColorMatrix type="matrix" values="0 0 0 0 1 0 0 0 0 1 0 0 0 0 1 0 0 0 1 0"/>
<feBlend mode="normal" in2="shape" result="effect2_innerShadow_248_554"/>
<feColorMatrix in="SourceAlpha" type="matrix" values="0 0 0 0 0 0 0 0 0 0 0 0 0 0 0 0 0 0 127 0" result="hardAlpha"/>
<feOffset dy="-5.23274"/>
<feGaussianBlur stdDeviation="2.61637"/>
<feComposite in2="hardAlpha" operator="arithmetic" k2="-1" k3="1"/>
<feColorMatrix type="matrix" values="0 0 0 0 0.922188 0 0 0 0 0.922188 0 0 0 0 0.922188 0 0 0 1 0"/>
<feBlend mode="normal" in2="effect2_innerShadow_248_554" result="effect3_innerShadow_248_554"/>
</filter>
<filter id="filter4_dii_248_554" x="0.0666656" y="221.533" width="262.867" height="115.867" filterUnits="userSpaceOnUse" color-interpolation-filters="sRGB">
<feFlood flood-opacity="0" result="BackgroundImageFix"/>
<feColorMatrix in="SourceAlpha" type="matrix" values="0 0 0 0 0 0 0 0 0 0 0 0 0 0 0 0 0 0 127 0" result="hardAlpha"/>
<feOffset dy="16.4667"/>
<feGaussianBlur stdDeviation="16.4667"/>
<feColorMatrix type="matrix" values="0 0 0 0 0.2 0 0 0 0 0.2 0 0 0 0 0.2 0 0 0 0.2505 0"/>
<feBlend mode="normal" in2="BackgroundImageFix" result="effect1_dropShadow_248_554"/>
<feBlend mode="normal" in="SourceGraphic" in2="effect1_dropShadow_248_554" result="shape"/>
<feColorMatrix in="SourceAlpha" type="matrix" values="0 0 0 0 0 0 0 0 0 0 0 0 0 0 0 0 0 0 127 0" result="hardAlpha"/>
<feOffset dy="5.23274"/>
<feGaussianBlur stdDeviation="2.61637"/>
<feComposite in2="hardAlpha" operator="arithmetic" k2="-1" k3="1"/>
<feColorMatrix type="matrix" values="0 0 0 0 1 0 0 0 0 1 0 0 0 0 1 0 0 0 1 0"/>
<feBlend mode="normal" in2="shape" result="effect2_innerShadow_248_554"/>
<feColorMatrix in="SourceAlpha" type="matrix" values="0 0 0 0 0 0 0 0 0 0 0 0 0 0 0 0 0 0 127 0" result="hardAlpha"/>
<feOffset dy="-5.23274"/>
<feGaussianBlur stdDeviation="2.61637"/>
<feComposite in2="hardAlpha" operator="arithmetic" k2="-1" k3="1"/>
<feColorMatrix type="matrix" values="0 0 0 0 0.922188 0 0 0 0 0.922188 0 0 0 0 0.922188 0 0 0 1 0"/>
<feBlend mode="normal" in2="effect2_innerShadow_248_554" result="effect3_innerShadow_248_554"/>
</filter>
<filter id="filter5_dii_248_554" x="0.0666656" y="276.533" width="262.867" height="115.867" filterUnits="userSpaceOnUse" color-interpolation-filters="sRGB">
<feFlood flood-opacity="0" result="BackgroundImageFix"/>
<feColorMatrix in="SourceAlpha" type="matrix" values="0 0 0 0 0 0 0 0 0 0 0 0 0 0 0 0 0 0 127 0" result="hardAlpha"/>
<feOffset dy="16.4667"/>
<feGaussianBlur stdDeviation="16.4667"/>
<feColorMatrix type="matrix" values="0 0 0 0 0.2 0 0 0 0 0.2 0 0 0 0 0.2 0 0 0 0.2505 0"/>
<feBlend mode="normal" in2="BackgroundImageFix" result="effect1_dropShadow_248_554"/>
<feBlend mode="normal" in="SourceGraphic" in2="effect1_dropShadow_248_554" result="shape"/>
<feColorMatrix in="SourceAlpha" type="matrix" values="0 0 0 0 0 0 0 0 0 0 0 0 0 0 0 0 0 0 127 0" result="hardAlpha"/>
<feOffset dy="5.23274"/>
<feGaussianBlur stdDeviation="2.61637"/>
<feComposite in2="hardAlpha" operator="arithmetic" k2="-1" k3="1"/>
<feColorMatrix type="matrix" values="0 0 0 0 1 0 0 0 0 1 0 0 0 0 1 0 0 0 1 0"/>
<feBlend mode="normal" in2="shape" result="effect2_innerShadow_248_554"/>
<feColorMatrix in="SourceAlpha" type="matrix" values="0 0 0 0 0 0 0 0 0 0 0 0 0 0 0 0 0 0 127 0" result="hardAlpha"/>
<feOffset dy="-5.23274"/>
<feGaussianBlur stdDeviation="2.61637"/>
<feComposite in2="hardAlpha" operator="arithmetic" k2="-1" k3="1"/>
<feColorMatrix type="matrix" values="0 0 0 0 0.922188 0 0 0 0 0.922188 0 0 0 0 0.922188 0 0 0 1 0"/>
<feBlend mode="normal" in2="effect2_innerShadow_248_554" result="effect3_innerShadow_248_554"/>
</filter>
<filter id="filter6_dii_248_554" x="0.0666656" y="330.533" width="262.867" height="115.867" filterUnits="userSpaceOnUse" color-interpolation-filters="sRGB">
<feFlood flood-opacity="0" result="BackgroundImageFix"/>
<feColorMatrix in="SourceAlpha" type="matrix" values="0 0 0 0 0 0 0 0 0 0 0 0 0 0 0 0 0 0 127 0" result="hardAlpha"/>
<feOffset dy="16.4667"/>
<feGaussianBlur stdDeviation="16.4667"/>
<feColorMatrix type="matrix" values="0 0 0 0 0.2 0 0 0 0 0.2 0 0 0 0 0.2 0 0 0 0.2505 0"/>
<feBlend mode="normal" in2="BackgroundImageFix" result="effect1_dropShadow_248_554"/>
<feBlend mode="normal" in="SourceGraphic" in2="effect1_dropShadow_248_554" result="shape"/>
<feColorMatrix in="SourceAlpha" type="matrix" values="0 0 0 0 0 0 0 0 0 0 0 0 0 0 0 0 0 0 127 0" result="hardAlpha"/>
<feOffset dy="5.23274"/>
<feGaussianBlur stdDeviation="2.61637"/>
<feComposite in2="hardAlpha" operator="arithmetic" k2="-1" k3="1"/>
<feColorMatrix type="matrix" values="0 0 0 0 1 0 0 0 0 1 0 0 0 0 1 0 0 0 1 0"/>
<feBlend mode="normal" in2="shape" result="effect2_innerShadow_248_554"/>
<feColorMatrix in="SourceAlpha" type="matrix" values="0 0 0 0 0 0 0 0 0 0 0 0 0 0 0 0 0 0 127 0" result="hardAlpha"/>
<feOffset dy="-5.23274"/>
<feGaussianBlur stdDeviation="2.61637"/>
<feComposite in2="hardAlpha" operator="arithmetic" k2="-1" k3="1"/>
<feColorMatrix type="matrix" values="0 0 0 0 0.922188 0 0 0 0 0.922188 0 0 0 0 0.922188 0 0 0 1 0"/>
<feBlend mode="normal" in2="effect2_innerShadow_248_554" result="effect3_innerShadow_248_554"/>
</filter>
</defs>
</svg>
