<svg width="198" height="63" viewBox="0 0 198 63" fill="none" xmlns="http://www.w3.org/2000/svg">
<g filter="url(#filter0_ii_248_542)">
<rect x="0.5" width="197" height="63" rx="10" fill="white"/>
</g>
<rect x="1" y="0.5" width="196" height="62" rx="9.5" stroke="#8F8F8F"/>
<path d="M42.1643 40.24C40.5483 40.24 39.1803 40 38.0603 39.52C36.9403 39.04 36.0843 38.368 35.4923 37.504C34.9163 36.624 34.6283 35.608 34.6283 34.456H39.5723C39.5723 34.872 39.6683 35.24 39.8603 35.56C40.0523 35.864 40.3483 36.104 40.7483 36.28C41.1643 36.456 41.7083 36.544 42.3803 36.544C43.0843 36.544 43.6363 36.424 44.0363 36.184C44.4523 35.944 44.6603 35.6 44.6603 35.152C44.6603 34.832 44.6043 34.576 44.4923 34.384C44.3963 34.176 44.2203 34.008 43.9643 33.88C43.7083 33.752 43.3483 33.648 42.8843 33.568C42.4203 33.472 41.8283 33.368 41.1083 33.256C40.1003 33.112 39.2123 32.896 38.4443 32.608C37.6763 32.32 37.0363 31.96 36.5243 31.528C36.0123 31.096 35.6283 30.584 35.3723 29.992C35.1163 29.4 34.9883 28.72 34.9883 27.952C34.9883 26.768 35.2763 25.752 35.8523 24.904C36.4443 24.056 37.2763 23.408 38.3483 22.96C39.4363 22.512 40.7243 22.288 42.2123 22.288C43.6203 22.288 44.8443 22.512 45.8843 22.96C46.9403 23.392 47.7563 24.008 48.3323 24.808C48.9243 25.592 49.2203 26.512 49.2203 27.568H44.3243C44.3083 27.136 44.1883 26.8 43.9643 26.56C43.7403 26.32 43.4603 26.152 43.1243 26.056C42.7883 25.96 42.4443 25.912 42.0923 25.912C41.6763 25.912 41.3083 25.968 40.9883 26.08C40.6843 26.192 40.4443 26.352 40.2683 26.56C40.1083 26.768 40.0283 27.016 40.0283 27.304C40.0283 27.72 40.1483 28.032 40.3883 28.24C40.6443 28.432 41.0443 28.584 41.5883 28.696C42.1483 28.792 42.8763 28.912 43.7723 29.056C44.4763 29.152 45.1723 29.296 45.8603 29.488C46.5643 29.68 47.2043 29.968 47.7803 30.352C48.3723 30.736 48.8443 31.272 49.1963 31.96C49.5483 32.648 49.7243 33.544 49.7243 34.648C49.7243 35.736 49.4443 36.704 48.8843 37.552C48.3243 38.4 47.4843 39.064 46.3643 39.544C45.2603 40.008 43.8603 40.24 42.1643 40.24ZM57.2026 40.24C55.7786 40.24 54.5626 39.968 53.5546 39.424C52.5626 38.864 51.8026 38.088 51.2746 37.096C50.7466 36.088 50.4826 34.92 50.4826 33.592C50.4826 32.168 50.7546 30.944 51.2986 29.92C51.8426 28.88 52.6026 28.088 53.5786 27.544C54.5706 26.984 55.7226 26.704 57.0346 26.704C58.6186 26.704 59.9146 27.048 60.9226 27.736C61.9306 28.408 62.6506 29.336 63.0826 30.52C63.5306 31.704 63.6746 33.048 63.5146 34.552H54.9946C54.9786 35.032 55.0586 35.448 55.2346 35.8C55.4266 36.136 55.6906 36.392 56.0266 36.568C56.3626 36.744 56.7546 36.832 57.2026 36.832C57.6826 36.832 58.0986 36.736 58.4506 36.544C58.8026 36.336 59.0266 36.072 59.1226 35.752H63.4186C63.3226 36.648 62.9946 37.432 62.4346 38.104C61.8906 38.776 61.1706 39.304 60.2746 39.688C59.3786 40.056 58.3546 40.24 57.2026 40.24ZM54.9946 32.2L54.6106 31.816H59.4106L59.0026 32.176C59.0346 31.728 58.9706 31.352 58.8106 31.048C58.6506 30.744 58.4186 30.512 58.1146 30.352C57.8106 30.176 57.4506 30.088 57.0346 30.088C56.6026 30.088 56.2266 30.176 55.9066 30.352C55.6026 30.528 55.3706 30.776 55.2106 31.096C55.0506 31.416 54.9786 31.784 54.9946 32.2ZM73.6538 44.008V38.008H73.4138C73.1258 38.68 72.6458 39.224 71.9738 39.64C71.3018 40.04 70.5018 40.24 69.5738 40.24C68.8058 40.24 68.1098 40.104 67.4858 39.832C66.8618 39.56 66.3178 39.144 65.8538 38.584C65.4058 38.024 65.0618 37.32 64.8218 36.472C64.5818 35.624 64.4618 34.624 64.4618 33.472C64.4618 31.936 64.6698 30.672 65.0858 29.68C65.5178 28.672 66.1178 27.928 66.8858 27.448C67.6538 26.952 68.5498 26.704 69.5738 26.704C70.1978 26.704 70.7578 26.8 71.2538 26.992C71.7658 27.168 72.2058 27.424 72.5738 27.76C72.9418 28.096 73.2218 28.488 73.4138 28.936H73.6538L73.8218 26.944H78.2378V44.008H73.6538ZM71.3738 36.568C71.9178 36.568 72.3498 36.448 72.6698 36.208C72.9898 35.952 73.2218 35.632 73.3658 35.248C73.5258 34.848 73.6058 34.432 73.6058 34V32.944C73.6058 32.496 73.5258 32.08 73.3658 31.696C73.2218 31.312 72.9898 31 72.6698 30.76C72.3498 30.504 71.9178 30.376 71.3738 30.376C70.9258 30.376 70.5338 30.48 70.1978 30.688C69.8618 30.896 69.5978 31.224 69.4058 31.672C69.2298 32.12 69.1418 32.72 69.1418 33.472C69.1418 34.208 69.2298 34.808 69.4058 35.272C69.5978 35.72 69.8618 36.048 70.1978 36.256C70.5338 36.464 70.9258 36.568 71.3738 36.568ZM84.7735 40.24C83.7495 40.24 82.8935 40.048 82.2055 39.664C81.5175 39.264 81.0055 38.688 80.6695 37.936C80.3335 37.168 80.1655 36.248 80.1655 35.176V26.944H84.7495V33.928C84.7495 34.504 84.8135 34.984 84.9415 35.368C85.0695 35.752 85.2695 36.048 85.5415 36.256C85.8295 36.448 86.1975 36.544 86.6455 36.544C87.1255 36.544 87.5175 36.432 87.8215 36.208C88.1415 35.984 88.3815 35.704 88.5415 35.368C88.7015 35.032 88.7815 34.688 88.7815 34.336V26.944H93.3655V40H88.9495L88.7815 37.864H88.5895C88.2855 38.648 87.7895 39.24 87.1015 39.64C86.4135 40.04 85.6375 40.24 84.7735 40.24ZM101.086 40.24C99.6616 40.24 98.4456 39.968 97.4376 39.424C96.4456 38.864 95.6856 38.088 95.1576 37.096C94.6296 36.088 94.3656 34.92 94.3656 33.592C94.3656 32.168 94.6376 30.944 95.1816 29.92C95.7256 28.88 96.4856 28.088 97.4616 27.544C98.4536 26.984 99.6056 26.704 100.918 26.704C102.502 26.704 103.798 27.048 104.806 27.736C105.814 28.408 106.534 29.336 106.966 30.52C107.414 31.704 107.558 33.048 107.398 34.552H98.8776C98.8616 35.032 98.9416 35.448 99.1176 35.8C99.3096 36.136 99.5736 36.392 99.9096 36.568C100.246 36.744 100.638 36.832 101.086 36.832C101.566 36.832 101.982 36.736 102.334 36.544C102.686 36.336 102.91 36.072 103.006 35.752H107.302C107.206 36.648 106.878 37.432 106.318 38.104C105.774 38.776 105.054 39.304 104.158 39.688C103.262 40.056 102.238 40.24 101.086 40.24ZM98.8776 32.2L98.4936 31.816H103.294L102.886 32.176C102.918 31.728 102.854 31.352 102.694 31.048C102.534 30.744 102.302 30.512 101.998 30.352C101.694 30.176 101.334 30.088 100.918 30.088C100.486 30.088 100.11 30.176 99.7896 30.352C99.4856 30.528 99.2536 30.776 99.0936 31.096C98.9336 31.416 98.8616 31.784 98.8776 32.2ZM108.806 40V26.944H113.222L113.39 29.08H113.582C113.902 28.28 114.406 27.688 115.094 27.304C115.798 26.904 116.582 26.704 117.446 26.704C118.086 26.704 118.678 26.8 119.222 26.992C119.782 27.184 120.27 27.488 120.686 27.904C121.102 28.32 121.422 28.872 121.646 29.56C121.886 30.232 122.006 31.048 122.006 32.008V40H117.422V33.016C117.422 32.44 117.358 31.96 117.23 31.576C117.102 31.176 116.902 30.88 116.63 30.688C116.358 30.496 115.99 30.4 115.526 30.4C115.046 30.4 114.646 30.512 114.326 30.736C114.022 30.96 113.79 31.24 113.63 31.576C113.47 31.912 113.39 32.256 113.39 32.608V40H108.806ZM129.886 40.24C128.878 40.24 127.966 40.08 127.15 39.76C126.334 39.44 125.63 38.984 125.038 38.392C124.462 37.784 124.014 37.064 123.694 36.232C123.39 35.4 123.238 34.472 123.238 33.448C123.238 32.072 123.51 30.88 124.054 29.872C124.614 28.864 125.398 28.088 126.406 27.544C127.43 26.984 128.63 26.704 130.006 26.704C131.19 26.704 132.238 26.928 133.15 27.376C134.062 27.808 134.782 28.416 135.31 29.2C135.838 29.984 136.11 30.896 136.126 31.936H131.662C131.614 31.584 131.502 31.296 131.326 31.072C131.166 30.848 130.966 30.68 130.726 30.568C130.486 30.456 130.214 30.4 129.91 30.4C129.446 30.4 129.062 30.528 128.758 30.784C128.454 31.024 128.23 31.376 128.086 31.84C127.958 32.288 127.894 32.832 127.894 33.472C127.894 34.192 127.974 34.776 128.134 35.224C128.31 35.672 128.542 36.008 128.83 36.232C129.134 36.44 129.486 36.544 129.886 36.544C130.27 36.544 130.59 36.48 130.846 36.352C131.102 36.208 131.302 36.024 131.446 35.8C131.59 35.56 131.678 35.296 131.71 35.008H136.15C136.118 36.064 135.83 36.984 135.286 37.768C134.742 38.552 134.006 39.16 133.078 39.592C132.15 40.024 131.086 40.24 129.886 40.24ZM143.422 40.24C141.998 40.24 140.782 39.968 139.774 39.424C138.782 38.864 138.022 38.088 137.494 37.096C136.966 36.088 136.702 34.92 136.702 33.592C136.702 32.168 136.974 30.944 137.518 29.92C138.062 28.88 138.822 28.088 139.798 27.544C140.79 26.984 141.942 26.704 143.254 26.704C144.838 26.704 146.134 27.048 147.142 27.736C148.15 28.408 148.87 29.336 149.302 30.52C149.75 31.704 149.894 33.048 149.734 34.552H141.214C141.198 35.032 141.278 35.448 141.454 35.8C141.646 36.136 141.91 36.392 142.246 36.568C142.582 36.744 142.974 36.832 143.422 36.832C143.902 36.832 144.318 36.736 144.67 36.544C145.022 36.336 145.246 36.072 145.342 35.752H149.638C149.542 36.648 149.214 37.432 148.654 38.104C148.11 38.776 147.39 39.304 146.494 39.688C145.598 40.056 144.574 40.24 143.422 40.24ZM141.214 32.2L140.83 31.816H145.63L145.222 32.176C145.254 31.728 145.19 31.352 145.03 31.048C144.87 30.744 144.638 30.512 144.334 30.352C144.03 30.176 143.67 30.088 143.254 30.088C142.822 30.088 142.446 30.176 142.126 30.352C141.822 30.528 141.59 30.776 141.43 31.096C141.27 31.416 141.198 31.784 141.214 32.2ZM151.143 40V26.944H155.295L155.463 28.84H155.631C155.919 28.008 156.359 27.456 156.951 27.184C157.559 26.912 158.247 26.776 159.015 26.776C159.159 26.776 159.287 26.776 159.399 26.776C159.511 26.776 159.623 26.776 159.735 26.776V31.072C159.655 31.072 159.543 31.072 159.399 31.072C159.255 31.072 159.095 31.072 158.919 31.072C158.087 31.072 157.439 31.184 156.975 31.408C156.511 31.616 156.183 31.928 155.991 32.344C155.815 32.744 155.727 33.24 155.727 33.832V40H151.143Z" fill="black"/>
<defs>
<filter id="filter0_ii_248_542" x="0.5" y="-7.51111" width="197" height="78.0222" filterUnits="userSpaceOnUse" color-interpolation-filters="sRGB">
<feFlood flood-opacity="0" result="BackgroundImageFix"/>
<feBlend mode="normal" in="SourceGraphic" in2="BackgroundImageFix" result="shape"/>
<feColorMatrix in="SourceAlpha" type="matrix" values="0 0 0 0 0 0 0 0 0 0 0 0 0 0 0 0 0 0 127 0" result="hardAlpha"/>
<feOffset dy="7.51111"/>
<feGaussianBlur stdDeviation="3.75556"/>
<feComposite in2="hardAlpha" operator="arithmetic" k2="-1" k3="1"/>
<feColorMatrix type="matrix" values="0 0 0 0 1 0 0 0 0 1 0 0 0 0 1 0 0 0 1 0"/>
<feBlend mode="normal" in2="shape" result="effect1_innerShadow_248_542"/>
<feColorMatrix in="SourceAlpha" type="matrix" values="0 0 0 0 0 0 0 0 0 0 0 0 0 0 0 0 0 0 127 0" result="hardAlpha"/>
<feOffset dy="-7.51111"/>
<feGaussianBlur stdDeviation="3.75556"/>
<feComposite in2="hardAlpha" operator="arithmetic" k2="-1" k3="1"/>
<feColorMatrix type="matrix" values="0 0 0 0 0.873438 0 0 0 0 0.873438 0 0 0 0 0.873438 0 0 0 1 0"/>
<feBlend mode="normal" in2="effect1_innerShadow_248_542" result="effect2_innerShadow_248_542"/>
</filter>
</defs>
</svg>
