<svg width="426" height="183" viewBox="0 0 426 183" fill="none" xmlns="http://www.w3.org/2000/svg">
<g filter="url(#filter0_dii_248_541)">
<rect x="62" y="30" width="306" height="63" rx="30" fill="url(#paint0_linear_248_541)"/>
<rect x="62.5" y="30.5" width="305" height="62" rx="29.5" stroke="#8F8F8F"/>
</g>
<path d="M193.223 70L198.671 52.504H205.607L211.055 70H205.991L205.079 66.88H199.199L198.287 70H193.223ZM200.279 63.184H203.999L202.967 59.656L202.223 56.872H202.055L201.311 59.656L200.279 63.184ZM217.498 70.24C216.49 70.24 215.578 70.08 214.762 69.76C213.946 69.44 213.242 68.984 212.65 68.392C212.074 67.784 211.626 67.064 211.306 66.232C211.002 65.4 210.85 64.472 210.85 63.448C210.85 62.072 211.122 60.88 211.666 59.872C212.226 58.864 213.01 58.088 214.018 57.544C215.042 56.984 216.242 56.704 217.618 56.704C218.802 56.704 219.85 56.928 220.762 57.376C221.674 57.808 222.394 58.416 222.922 59.2C223.45 59.984 223.722 60.896 223.738 61.936H219.274C219.226 61.584 219.114 61.296 218.938 61.072C218.778 60.848 218.578 60.68 218.338 60.568C218.098 60.456 217.826 60.4 217.522 60.4C217.058 60.4 216.674 60.528 216.37 60.784C216.066 61.024 215.842 61.376 215.698 61.84C215.57 62.288 215.506 62.832 215.506 63.472C215.506 64.192 215.586 64.776 215.746 65.224C215.922 65.672 216.154 66.008 216.442 66.232C216.746 66.44 217.098 66.544 217.498 66.544C217.882 66.544 218.202 66.48 218.458 66.352C218.714 66.208 218.914 66.024 219.058 65.8C219.202 65.56 219.29 65.296 219.322 65.008H223.762C223.73 66.064 223.442 66.984 222.898 67.768C222.354 68.552 221.618 69.16 220.69 69.592C219.762 70.024 218.698 70.24 217.498 70.24ZM230.962 70.24C229.954 70.24 229.042 70.08 228.226 69.76C227.41 69.44 226.706 68.984 226.114 68.392C225.538 67.784 225.09 67.064 224.77 66.232C224.466 65.4 224.314 64.472 224.314 63.448C224.314 62.072 224.586 60.88 225.13 59.872C225.69 58.864 226.474 58.088 227.482 57.544C228.506 56.984 229.706 56.704 231.082 56.704C232.266 56.704 233.314 56.928 234.226 57.376C235.138 57.808 235.858 58.416 236.386 59.2C236.914 59.984 237.186 60.896 237.202 61.936H232.738C232.69 61.584 232.578 61.296 232.402 61.072C232.242 60.848 232.042 60.68 231.802 60.568C231.562 60.456 231.29 60.4 230.986 60.4C230.522 60.4 230.138 60.528 229.834 60.784C229.53 61.024 229.306 61.376 229.162 61.84C229.034 62.288 228.97 62.832 228.97 63.472C228.97 64.192 229.05 64.776 229.21 65.224C229.386 65.672 229.618 66.008 229.906 66.232C230.21 66.44 230.562 66.544 230.962 66.544C231.346 66.544 231.666 66.48 231.922 66.352C232.178 66.208 232.378 66.024 232.522 65.8C232.666 65.56 232.754 65.296 232.786 65.008H237.226C237.194 66.064 236.906 66.984 236.362 67.768C235.818 68.552 235.082 69.16 234.154 69.592C233.226 70.024 232.162 70.24 230.962 70.24Z" fill="black"/>
<defs>
<filter id="filter0_dii_248_541" x="0.183273" y="0.0605793" width="425.467" height="182.467" filterUnits="userSpaceOnUse" color-interpolation-filters="sRGB">
<feFlood flood-opacity="0" result="BackgroundImageFix"/>
<feColorMatrix in="SourceAlpha" type="matrix" values="0 0 0 0 0 0 0 0 0 0 0 0 0 0 0 0 0 0 127 0" result="hardAlpha"/>
<feOffset dx="-2.08339" dy="29.7939"/>
<feGaussianBlur stdDeviation="29.8667"/>
<feColorMatrix type="matrix" values="0 0 0 0 0.2 0 0 0 0 0.2 0 0 0 0 0.2 0 0 0 0.135 0"/>
<feBlend mode="normal" in2="BackgroundImageFix" result="effect1_dropShadow_248_541"/>
<feBlend mode="normal" in="SourceGraphic" in2="effect1_dropShadow_248_541" result="shape"/>
<feColorMatrix in="SourceAlpha" type="matrix" values="0 0 0 0 0 0 0 0 0 0 0 0 0 0 0 0 0 0 127 0" result="hardAlpha"/>
<feOffset dx="-0.509274" dy="7.28296"/>
<feGaussianBlur stdDeviation="3.65037"/>
<feComposite in2="hardAlpha" operator="arithmetic" k2="-1" k3="1"/>
<feColorMatrix type="matrix" values="0 0 0 0 1 0 0 0 0 1 0 0 0 0 1 0 0 0 1 0"/>
<feBlend mode="normal" in2="shape" result="effect2_innerShadow_248_541"/>
<feColorMatrix in="SourceAlpha" type="matrix" values="0 0 0 0 0 0 0 0 0 0 0 0 0 0 0 0 0 0 127 0" result="hardAlpha"/>
<feOffset dx="0.509274" dy="-7.28296"/>
<feGaussianBlur stdDeviation="3.65037"/>
<feComposite in2="hardAlpha" operator="arithmetic" k2="-1" k3="1"/>
<feColorMatrix type="matrix" values="0 0 0 0 0.875 0 0 0 0 0.875 0 0 0 0 0.875 0 0 0 1 0"/>
<feBlend mode="normal" in2="effect2_innerShadow_248_541" result="effect3_innerShadow_248_541"/>
</filter>
<linearGradient id="paint0_linear_248_541" x1="216.116" y1="27.8134" x2="215.207" y2="90.9541" gradientUnits="userSpaceOnUse">
<stop stop-color="#E6E6E6"/>
<stop offset="1" stop-color="white"/>
</linearGradient>
</defs>
</svg>
