<svg width="53" height="47" viewBox="0 0 53 47" fill="none" xmlns="http://www.w3.org/2000/svg">
<path d="M13.2507 37.2082H19.8757V25.4582H33.1257V37.2082H39.7507V19.5832L26.5007 10.7707L13.2507 19.5832V37.2082ZM13.2507 41.1248C12.0361 41.1248 10.9967 40.7417 10.1325 39.9753C9.26682 39.2076 8.83398 38.2853 8.83398 37.2082V19.5832C8.83398 18.963 8.99078 18.3755 9.30436 17.8207C9.61647 17.2658 10.0486 16.8089 10.6007 16.4498L23.8507 7.63734C24.2555 7.37623 24.6788 7.18039 25.1204 7.04984C25.5621 6.91928 26.0222 6.854 26.5007 6.854C26.9791 6.854 27.4392 6.91928 27.8809 7.04984C28.3225 7.18039 28.7458 7.37623 29.1507 7.63734L42.4007 16.4498C42.9527 16.8089 43.3856 17.2658 43.6992 17.8207C44.0113 18.3755 44.1673 18.963 44.1673 19.5832V37.2082C44.1673 38.2853 43.7352 39.2076 42.871 39.9753C42.0054 40.7417 40.9652 41.1248 39.7507 41.1248H28.709V29.3748H24.2923V41.1248H13.2507Z" fill="black"/>
</svg>
