<svg xmlns="http://www.w3.org/2000/svg" viewBox="0 0 194 130"><defs><style>.cls-1,.cls-2{fill:#fff;}.cls-2{stroke:#8f8f8f;}</style></defs><g id="Calque_2" data-name="Calque 2"><g id="Calque_1-2" data-name="Calque 1"><rect class="cls-1" width="194" height="130" rx="12"/><rect class="cls-2" x="145.5" y="10.5" width="38" height="106" rx="9.5"/><rect class="cls-2" x="100.5" y="10.5" width="38" height="106" rx="9.5"/><rect class="cls-2" x="55.5" y="10.5" width="38" height="106" rx="9.5"/><rect class="cls-2" x="10.5" y="10.5" width="38" height="106" rx="9.5"/><path d="M40.84,73V55.5h4.87V73Zm6.69,2L54.42,55.5h4.39L51.87,75Zm20.65-1.73a10.69,10.69,0,0,1-3.64-.58,8.26,8.26,0,0,1-2.84-1.72,7.93,7.93,0,0,1-1.82-2.84,10.93,10.93,0,0,1-.62-3.86,10.74,10.74,0,0,1,.62-3.84,7.64,7.64,0,0,1,1.82-2.81,7.84,7.84,0,0,1,2.84-1.73,11.37,11.37,0,0,1,7.29,0,7.48,7.48,0,0,1,2.83,1.73,7.3,7.3,0,0,1,1.83,2.81,10.51,10.51,0,0,1,.65,3.84,10.69,10.69,0,0,1-.65,3.86,7.57,7.57,0,0,1-1.83,2.84,7.85,7.85,0,0,1-2.83,1.72A10.75,10.75,0,0,1,68.18,73.24Zm0-4.13a4.22,4.22,0,0,0,2.09-.5,3.34,3.34,0,0,0,1.37-1.56,6.64,6.64,0,0,0,.5-2.81A7.52,7.52,0,0,0,71.86,62,4.09,4.09,0,0,0,71,60.54a2.87,2.87,0,0,0-1.25-.86,4.32,4.32,0,0,0-1.61-.29,4.06,4.06,0,0,0-2.06.51,3.24,3.24,0,0,0-1.39,1.56,6.77,6.77,0,0,0-.48,2.78,7.36,7.36,0,0,0,.29,2.23A3.92,3.92,0,0,0,65.33,68a3.29,3.29,0,0,0,1.25.87A4.75,4.75,0,0,0,68.18,69.11ZM83.3,73V55.5h9.12a7.12,7.12,0,0,1,3,.58,3.78,3.78,0,0,1,1.77,1.56,4.55,4.55,0,0,1,.6,2.38,4.29,4.29,0,0,1-.31,1.65,3.64,3.64,0,0,1-.84,1.3,3.18,3.18,0,0,1-1.32.79V64a3.31,3.31,0,0,1,1.61.76,3.56,3.56,0,0,1,1,1.37,4.45,4.45,0,0,1,.36,1.8,5,5,0,0,1-.76,2.86,4.61,4.61,0,0,1-2.24,1.68,9.92,9.92,0,0,1-3.55.55ZM88,69.33H91.2a2.4,2.4,0,0,0,1.68-.46,1.66,1.66,0,0,0,.5-1.25,1.56,1.56,0,0,0-.6-1.39,2.63,2.63,0,0,0-1.54-.41H88Zm0-7h3a2.57,2.57,0,0,0,1.1-.2,1.36,1.36,0,0,0,.63-.57,1.86,1.86,0,0,0,.19-.84,1.25,1.25,0,0,0-.53-1.15A2.47,2.47,0,0,0,91,59.18H88Zm16,10.94a5.14,5.14,0,0,1-2.57-.58,3.69,3.69,0,0,1-1.54-1.72,7,7,0,0,1-.5-2.76V59.94H104v7a4.59,4.59,0,0,0,.2,1.44,1.73,1.73,0,0,0,.6.89,1.93,1.93,0,0,0,1.1.28,2,2,0,0,0,1.18-.33,2.22,2.22,0,0,0,.72-.84,2.39,2.39,0,0,0,.24-1v-7.4h4.58V73h-4.42L108,70.86h-.2a3.4,3.4,0,0,1-1.48,1.78A4.57,4.57,0,0,1,104,73.24ZM115.32,73V63.62H113.4V59.94h1.92v-.86a3.25,3.25,0,0,1,1.11-2.64,4.85,4.85,0,0,1,3.17-.94h3v3H121a1.21,1.21,0,0,0-.86.24.72.72,0,0,0-.24.57v.67h2.45v3.68h-2.45V73Zm9.27,0V63.62h-1.92V59.94h1.92v-.86a3.28,3.28,0,0,1,1.1-2.64,4.87,4.87,0,0,1,3.17-.94h3v3h-1.54a1.22,1.22,0,0,0-.87.24.75.75,0,0,0-.23.57v.67h2.44v3.68h-2.44V73Zm13.68.24a7.54,7.54,0,0,1-3.65-.82,5.72,5.72,0,0,1-2.28-2.32,7.57,7.57,0,0,1-.79-3.51,7.65,7.65,0,0,1,.82-3.67,5.64,5.64,0,0,1,2.28-2.38,6.89,6.89,0,0,1,3.45-.84,6.74,6.74,0,0,1,3.89,1,5.5,5.5,0,0,1,2.16,2.78,8.65,8.65,0,0,1,.43,4h-8.52a2.71,2.71,0,0,0,.24,1.25,1.92,1.92,0,0,0,.8.77,2.52,2.52,0,0,0,1.17.26,2.48,2.48,0,0,0,1.25-.29,1.34,1.34,0,0,0,.67-.79h4.3a4.32,4.32,0,0,1-1,2.35,5.44,5.44,0,0,1-2.16,1.59A8,8,0,0,1,138.27,73.24Zm-2.21-8-.38-.38h4.8l-.41.36a2.09,2.09,0,0,0-.19-1.13,1.58,1.58,0,0,0-.7-.7,2.16,2.16,0,0,0-1.08-.26,2.32,2.32,0,0,0-1.12.26,1.75,1.75,0,0,0-.7.75A2.28,2.28,0,0,0,136.06,65.2ZM146,73V59.94h4.15l.17,1.9h.17a2.69,2.69,0,0,1,1.32-1.66,5,5,0,0,1,2.06-.4h.72v4.29h-.81a4.52,4.52,0,0,0-2,.34,1.9,1.9,0,0,0-1,.93,3.65,3.65,0,0,0-.26,1.49V73Z"/></g></g></svg>