<svg xmlns="http://www.w3.org/2000/svg" viewBox="0 0 146 146"><defs><style>.cls-1{fill:#fff;}.cls-2{fill:none;stroke:#8f8f8f;}</style></defs><g id="Calque_2" data-name="Calque 2"><g id="Calque_1-2" data-name="Calque 1"><path class="cls-1" d="M73,0h0a73,73,0,0,1,73,73h0a73,73,0,0,1-73,73h0A73,73,0,0,1,0,73H0A73,73,0,0,1,73,0Z"/><path class="cls-2" d="M73,.5h0A72.5,72.5,0,0,1,145.5,73h0A72.5,72.5,0,0,1,73,145.5h0A72.5,72.5,0,0,1,.5,73h0A72.5,72.5,0,0,1,73,.5Z"/><path d="M56.8,63V45.5h3.74V63Zm5.8,2L69.75,45.5h3.38L66,65Zm19.86-1.75a10.22,10.22,0,0,1-3.6-.6,7.55,7.55,0,0,1-4.57-4.56,11.09,11.09,0,0,1-.62-3.82,10.83,10.83,0,0,1,.62-3.79,7.48,7.48,0,0,1,4.57-4.56,11.1,11.1,0,0,1,7.2,0,7.78,7.78,0,0,1,2.78,1.75,7.4,7.4,0,0,1,1.77,2.81,10.6,10.6,0,0,1,.63,3.79,10.85,10.85,0,0,1-.63,3.82,7.53,7.53,0,0,1-1.79,2.8,7.63,7.63,0,0,1-2.76,1.76A10.3,10.3,0,0,1,82.46,63.22Zm0-3.2a5.1,5.1,0,0,0,2.61-.64,4.32,4.32,0,0,0,1.73-1.92,7.68,7.68,0,0,0,.6-3.22,7.8,7.8,0,0,0-.36-2.5,4.73,4.73,0,0,0-1-1.8,4.15,4.15,0,0,0-1.56-1.1,5.53,5.53,0,0,0-2-.36,5.17,5.17,0,0,0-2.62.65,4,4,0,0,0-1.7,1.92,7.47,7.47,0,0,0-.6,3.19,8.84,8.84,0,0,0,.33,2.54,5.06,5.06,0,0,0,1,1.8,4.07,4.07,0,0,0,1.54,1.08A5.46,5.46,0,0,0,82.46,60ZM26.81,99.22a10.13,10.13,0,0,1-3.57-.6,7.8,7.8,0,0,1-2.78-1.76,7.57,7.57,0,0,1-1.81-2.8A11.09,11.09,0,0,1,18,90.24a10.8,10.8,0,0,1,.62-3.77,7.61,7.61,0,0,1,1.81-2.83,7.78,7.78,0,0,1,2.78-1.75,10.13,10.13,0,0,1,3.57-.6,9.6,9.6,0,0,1,4,.79,7,7,0,0,1,2.83,2.16A6.51,6.51,0,0,1,35,87.53H31.18a3.54,3.54,0,0,0-.81-1.59,4.12,4.12,0,0,0-1.52-1.08,5.19,5.19,0,0,0-2-.38,5.1,5.1,0,0,0-2.61.65,4.09,4.09,0,0,0-1.71,1.92,7.64,7.64,0,0,0-.59,3.19,8.7,8.7,0,0,0,.33,2.54,5.19,5.19,0,0,0,1,1.8,4.06,4.06,0,0,0,1.56,1.08,5.44,5.44,0,0,0,2,.36,5.08,5.08,0,0,0,2-.38,4.12,4.12,0,0,0,1.52-1.08A3.38,3.38,0,0,0,31.18,93H35a6.35,6.35,0,0,1-1.32,3.31,7.46,7.46,0,0,1-2.85,2.19A9.89,9.89,0,0,1,26.81,99.22Zm15.76,0a7.53,7.53,0,0,1-2.64-.44,5.72,5.72,0,0,1-3.36-3.4,8,8,0,0,1-.46-2.81,7.5,7.5,0,0,1,.77-3.48,5.57,5.57,0,0,1,2.21-2.35,6.79,6.79,0,0,1,3.48-.84,7.22,7.22,0,0,1,2.61.45,5.71,5.71,0,0,1,2,1.32,5.92,5.92,0,0,1,1.32,2.09,8.34,8.34,0,0,1-.29,6.29A5.64,5.64,0,0,1,46,98.38,6.63,6.63,0,0,1,42.57,99.22Zm0-2.86A2.77,2.77,0,0,0,44.05,96a2.58,2.58,0,0,0,1-1.27,5.37,5.37,0,0,0,.36-2.11,6.27,6.27,0,0,0-.19-1.66,3.2,3.2,0,0,0-.58-1.2,2.17,2.17,0,0,0-.91-.69,2.78,2.78,0,0,0-1.17-.24,2.92,2.92,0,0,0-1.54.4,2.71,2.71,0,0,0-1,1.25,5.46,5.46,0,0,0-.36,2.14,6.94,6.94,0,0,0,.19,1.68,3.79,3.79,0,0,0,.6,1.17,2.51,2.51,0,0,0,.92.7A2.78,2.78,0,0,0,42.54,96.36ZM50.69,99V86.14h3.39l.14,2.32h.14A3.8,3.8,0,0,1,56,86.54a4.79,4.79,0,0,1,2.47-.64,4.84,4.84,0,0,1,1.77.31,3.51,3.51,0,0,1,1.44.91,4,4,0,0,1,1,1.66A7.26,7.26,0,0,1,63,91.22V99H59.48V92a5.17,5.17,0,0,0-.27-1.8,1.85,1.85,0,0,0-.77-1,2.41,2.41,0,0,0-1.39-.36,2.58,2.58,0,0,0-1.53.43,2.78,2.78,0,0,0-1,1.13,3.32,3.32,0,0,0-.34,1.51V99Zm18.58,0a4.41,4.41,0,0,1-2-.38,2.16,2.16,0,0,1-1-1.08A4.77,4.77,0,0,1,66,95.86V89h-2.3V86.14H66V82.63l3.51-.33v3.84h2.59V89H69.49v6.21a.92.92,0,0,0,.26.77,1.29,1.29,0,0,0,.77.19h1.56V99Zm4.44,0V86.14H76.9L77,88.2h.12a2.92,2.92,0,0,1,1.37-1.73,4.7,4.7,0,0,1,2.18-.5h.72v3.31h-.79a4.44,4.44,0,0,0-1.92.36,2.26,2.26,0,0,0-1.1,1,3.66,3.66,0,0,0-.39,1.63V99Zm14.46.22a7.53,7.53,0,0,1-2.64-.44,5.79,5.79,0,0,1-2-1.32,5.61,5.61,0,0,1-1.32-2.08,8.28,8.28,0,0,1-.46-2.81,7.5,7.5,0,0,1,.77-3.48,5.57,5.57,0,0,1,2.21-2.35,6.79,6.79,0,0,1,3.48-.84,7.31,7.31,0,0,1,2.62.45,5.76,5.76,0,0,1,2,1.32,5.65,5.65,0,0,1,1.32,2.09,7.66,7.66,0,0,1,.48,2.81,7.49,7.49,0,0,1-.77,3.48,5.62,5.62,0,0,1-2.2,2.33A6.69,6.69,0,0,1,88.17,99.22Zm0-2.86A2.8,2.8,0,0,0,89.66,96a2.64,2.64,0,0,0,1-1.27A5.37,5.37,0,0,0,91,92.57a6.24,6.24,0,0,0-.2-1.66,3.19,3.19,0,0,0-.57-1.2,2.23,2.23,0,0,0-.91-.69,2.86,2.86,0,0,0-1.18-.24,2.92,2.92,0,0,0-1.54.4,2.7,2.7,0,0,0-1,1.25,5.46,5.46,0,0,0-.36,2.14,6.48,6.48,0,0,0,.19,1.68,3.4,3.4,0,0,0,.6,1.17,2.48,2.48,0,0,0,.91.7A2.8,2.8,0,0,0,88.15,96.36ZM96.3,99V81.5h3.52V99Zm6,0V81.5h3.53V99Zm11.65.22a7,7,0,0,1-3.46-.82,5.51,5.51,0,0,1-2.18-2.28,7.45,7.45,0,0,1-.77-3.46,7.9,7.9,0,0,1,.77-3.6,5.49,5.49,0,0,1,2.18-2.32,6.45,6.45,0,0,1,3.34-.84,6.33,6.33,0,0,1,3.67,1,5.4,5.4,0,0,1,2.06,2.66,8.31,8.31,0,0,1,.41,3.82h-9a3.59,3.59,0,0,0,.34,1.73,2.6,2.6,0,0,0,1,1.1,3.21,3.21,0,0,0,1.54.36,3.13,3.13,0,0,0,1.7-.43,1.93,1.93,0,0,0,.91-1.2h3.34a4.29,4.29,0,0,1-1,2.26,5.45,5.45,0,0,1-2.07,1.51A7.54,7.54,0,0,1,114,99.22ZM111,91.49l-.31-.39h6.12l-.31.39a3,3,0,0,0-.32-1.63,2,2,0,0,0-1-1,2.83,2.83,0,0,0-1.41-.34,2.94,2.94,0,0,0-1.49.36,2.5,2.5,0,0,0-1,1A3.24,3.24,0,0,0,111,91.49ZM121.74,99V86.14h3.19l.14,2.06h.12a2.88,2.88,0,0,1,1.37-1.73,4.7,4.7,0,0,1,2.18-.5h.72v3.31h-.79a4.44,4.44,0,0,0-1.92.36,2.26,2.26,0,0,0-1.1,1,3.66,3.66,0,0,0-.39,1.63V99Z"/></g></g></svg>